<?xml version="1.0" encoding="utf-8"?>
<!DOCTYPE svg PUBLIC "-//W3C//DTD SVG 1.1//EN" "http://www.w3.org/Graphics/SVG/1.1/DTD/svg11.dtd">
<svg version="1.1" id="Layer_1" xmlns="http://www.w3.org/2000/svg" xmlns:xlink="http://www.w3.org/1999/xlink" x="0px" y="0px"
	 viewBox="0 0 1920 1920" enable-background="new 0 0 1920 1920" xml:space="preserve">
<rect fill="#140B0C" stroke="#140B0C" stroke-width="0.0938" width="1920" height="1920"/>
<g id="_x23_fe0000ff">
	<path fill="#FE0000" stroke="#FE0000" stroke-width="0.0938" d="M662.74,129.91c22.56-10.53,45.05-21.23,67.72-31.51
		c-0.3,2.68-0.64,5.38-1.48,7.95c-3.52,13.36-7.07,26.79-8.58,40.55c-0.09,4.63-0.45,9.34,0.47,13.92
		c1.15,5.52,4.79,9.99,7.98,14.48c5,6.21,10.26,12.27,16.42,17.38c4.05,3.65,8.43,6.9,12.31,10.76c9.72,7.82,22.29,10.86,34.42,12.5
		c24.47,2.35,49.1-1.14,72.82-7.15c15.5-3.53,31.31-5.63,47.15-6.79c7.9-0.99,15.9301-0.05,23.8101-1.3
		c10.06-0.4,20.15-0.15,30.22-0.18c4.06-0.13,8.02,1.06,12.09,0.83c15.31-0.09,30.52,1.37,45.74,2.61
		c23.15,2.19,46.27,5.17,69.16,9.23c24.66,4.32,49.16,9.78,73.03,17.39c11.4299,3.69,22.74,7.87,33.51,13.21
		c9.6599,4.59,19.88,7.97,30.34,10.18c7.3199,0.77,14.75,2.53,22.1,0.8c8.3301-0.92,16.9-3.88,22.6901-10.2
		c3.0499-3.03,5.4299-7.1,5.13-11.55c0.51-4.71-2.5801-8.99-6.5601-11.15c-8.86-4.87-18.0599-9.08-27.04-13.7
		c0.2001-1.22,0.53-2.53,1.79-3.07c7.04-4.05,15.66-3.77,23.36-2.06c12.66,2.94,24.05,9.71,34.3301,17.46
		c12.3999,9.56,26.0599,17.4,40.33,23.82c20.58,9.27,42.55,15.79,65.0601,17.94c10.71,0.45,21.6799,0.87,32.11-2.1
		c7.76-1.97,16.2-5.77,19.5499-13.58c1.99-5.35,0.9301-11.43-1.61-16.42c-4.42-8.65-11.76-16.04-20.96-19.47
		c-4.9301-1.99-10.34-1.19-15.51-1.27c-0.03-0.58-0.1-1.75-0.14-2.33c2.0601-1.89,4.33-3.58,6.92-4.7
		c10.99-4.96,23.61-6.28,35.36-3.55c10.2,2.32,19.1599,8.5,26.0499,16.24c21.26,21.64,49.5901,35.56,78.9601,42.33
		c11.87,2.3,24.1799,4.26,36.21,1.84c16.71-4.53,30.73-15.13,45.59-23.58c18.3301-10.82,38.3-19.47,59.49-22.53
		c13.92-2.57,28.16-1.75,42.24-1.53c21.91,1.72,43.5701,6.18,64.53,12.81c10.66,3.46,21.23,7.34,31.2001,12.52
		c0.2799,0.43,0.85,1.3,1.1399,1.74c-5.9399,0.17-11.73-1.26-17.5199-2.31c-11.26-1.62-22.4-4-33.75-4.96
		c-8.55-1.69-17.3401-1.46-25.9401-2.78c-18.83-0.51-37.86-1.06-56.41,2.72c-12.4399,2.4-24.87,6.4-35.2699,13.82
		c-20.75,15.86-44.5701,28.06-70.14,33.79c-10.5601,2.64-21.4401,3.56-32.24,4.47c-8.4,0.41-16.6901-0.69-25.04-1.3
		c-10.41-1.01-20.49-3.85-30.8-5.45c-11.73-0.92-23.6699-0.33-34.9299,3.28c-8.87,2.75-17.72,7.17-23.47,14.68
		c-2.7201,3.89-4.7401,8.62-4.0801,13.45c0.9401,6.79,5.09,12.65,9.88,17.35c8.04,7.43,18.8201,10.89,29.38,12.83
		c20.47,3.61,41.41,2.13,61.89-0.55c30.03-4.34,59.78-11.49,88.01-22.73c19.4399-8.38,39.3099-15.82,59.64-21.76
		c21.77-6.36,44-11.51,66.61-13.67c5.34,0.19,10.5599-1.34,15.92-1.02c4.0399-0.21,8.0599,0.31,12.08,0.73
		c18.02,0.13,36.11,1.15,53.6899,5.35c-0.1,0.9-0.1799,1.81-0.24,2.71c-10.21,0.34-20.3099,1.9-30.49,2.54
		c-21.75,2.01-43.45,4.63-65.01,8.23c-18.1899,3.25-36.34,7.23-53.72,13.63c-9.3099,3.56-18.34,8.09-26.03,14.5
		c-17.96,12.3-39.09,18.73-59.75,24.87c-22.51,6.08-45.39,10.8-68.49,13.93c-15.27,1.94-30.59,3.69-46.01,3.56
		c-12.2999,0.11-24.8999,0.09-36.71-3.83c-7.08-2.14-11.76-8.2-16.79-13.22c-13.11-15.27-23.13-33.22-38.35-46.65
		c-11.29-10.76-25.7999-17.94-41.11-20.76c-9.38-1.3-18.97-2.66-28.36-0.73c-9.89,1.01-20.4,4.89-26.38,13.23
		c-3.89,4.9-3.39,11.61-2.54,17.43c2.5601,8.04,9.53,13.9,17.03,17.27c19.29,8.24,39.9399,12.4,60.1899,17.54
		c4.9901,1.42,10.3,2.43,14.65,5.46c-0.01,0.48-0.0399,1.44-0.0499,1.92c-2.25,1.5-4.8201,2.34-7.39,3.02
		c-17.09,3.79-34.78,3.42-52.1,1.86c-20.75-2.27-41.4301-7.57-59.8301-17.65c-19.83-11.52-40.63-21.44-62.22-29.19
		c-20.23-7-41.38-13.06-63-12c-5.13,0.14-10.74,1.39-14.05,5.67c-6.5,7.38-6.08,17.93-5.1599,27.09
		c2.58,13.66,10.52,26.17,21.5399,34.6c13.5901,10.68,30.86,15.49,47.87,16.79c15.91,0.4,31.8301,0.06,47.74,0
		c14.02,0.09,27.9901-1.09,42.02-1.06c12.27-1.49,24.6801-0.76,37.02-1.3c9.67-1,19.35,0.34,29.04,0.15
		c8.3199,0.17,16.65,0.19,24.96,0.55c6.96,1.22,14.0701,0.41,21.0601,1.32c5.27,0.61,10.61,0.02,15.87,0.83
		c4.63,0.91,9.39,0.39,14.08,0.78c10.27,1.23,20.6801,0.32,30.9301,1.78c13.71-0.08,27.37,1.11,41.08,0.76
		c8.6-0.87,17.27-0.42,25.9-0.9c7.48-1.14,15.0599-1.26,22.59-2.15c41.49-6.12,82.42-15.47,123.11-25.61
		c36.23-9.52,72.53-18.98,109.47-25.33c7.3601-0.93,14.7301-2.72,22.1801-1.43c-9.51,4.61-19.64,7.71-29.45,11.56
		c-40.3,14.86-80.8301,29.14-121.8401,41.89c-31.11,9.34-62.5,18.88-95.01,21.53c-5.4299,1-11,0.32-16.4099,1.43
		c-8.51,0.69-17.0701,0.05-25.5601,1c-13.01,0.1-26.02,0.04-39.02,0.02c-11.6499-0.96-23.36-0.37-35.0299-0.63
		c-15.9801,0.15-31.9901-0.46-47.9301,0.73c-5.34,0.12-10.72-0.11-15.97,1.01c-11.73,0.17-23.37,2.02-34.86,4.25
		c-1.27,0.13-2.4701,0.18-3.7001,0.22c-0.03,0.32-0.08,0.97-0.11,1.3c-6.99,0.85-13.47,4.07-19.45,7.63
		c-6.9501,4.12-12.67,10.49-15.23,18.23c-1.2101,7.09-0.8601,14.76,3.25,20.92c8.48,13.2,23.99,19.85,38.96,22.34
		c10.2999,2.1,20.89,1.23,31.33,1.11c9.23-1.44,18.63-0.36,27.88-1.62c11.01-0.21,21.91-1.7,32.9-2.23
		c31.17-3.05,62.42-6.63,93-13.71c10.5699-2.72,21.23-5.57,30.9399-10.68c26.8701-15.09,57.3301-21.42,86.66-29.91
		c9.4401-2.54,18.3-6.76,27.6-9.73c31.6101-10.59,63.4501-20.59,95.74-28.95c5.5-1.09,10.9-2.75,16.54-3.02
		c0.02,0.42,0.0701,1.25,0.1,1.66c-17.9399,8.84-36.8099,15.56-55.36,22.97c-41.65,16.06-83.45,31.72-125.0599,47.9
		c-19.53,7.78-39.1801,15.3-58.3201,24.01c-12.99,6.11-26.9199,9.88-40.83,13.18c-26.67,5.5-53.78,8.72-80.97,9.55
		c-7.27,1.2-14.66,0.63-21.98,0.9c-14.3601,0.07-28.7201,0.02-43.0801-0.32c-1.02-0.08-2.01-0.27-2.96-0.58
		c-7.05-0.16-14.04-0.93-21.0601-1.36c-11.02-1.68-22.34-2.51-32.7799-6.71c-5.6901-2.46-10.6101-6.46-16.51-8.43
		c-6.41-2.42-13.0901-4-19.8201-5.11c-7.45-1.94-15.2-1.99-22.84-1.84c-7.77,0.03-15.6,2.41-21.9401,6.93
		c-4.6599,3.26-7.7899,8.89-7.37,14.65c2.38,8.84,10.17,14.68,18.0701,18.46c16.3099,7.85,34.5699,9.72,52.26,12.24
		c18.64,2.19,37.2899,4.31,56.0499,5.15c5.89,1.15,11.9301,0.56,17.89,0.98c8.67,0.95,17.42,0.54,26.13,0.82
		c17.3,0.14,34.6,0.15,51.9-0.12c10.38,0.06,20.7-1.12,31.08-1.08c9.0901-1.35,18.36-1.01,27.4401-2.52
		c37.24-2.96,73.03-15.11,107.1899-29.73c4.76-1.73,9.25-4.48,14.4-4.94c-0.95,5.29-6.17,7.86-9.67,11.33
		c-15.61,12.23-33.6499,21.01-52.1399,27.95c-10.5901,3.71-21.3401,7.13-32.3501,9.32c-19,4.67-38.62,6.0099-57.98,8.33
		c-31.34,3.09-62.6899,5.82-94.12,7.7c-4.9,1.11-9.9299,0.44-14.86,1.18c-4.98,0.75-10.0599,0.1-15.01,1
		c-4.62,0.85-9.33,0.31-13.96,0.92c-6.3101,0.81-12.72,0.19-18.97,1.45c-7.7301,0.17-15.4,1.02-23.1001,1.45
		c-8.74,1.13-17.6699,1.66-26.1399,4.34c-4,1.1-7.88,2.86-11.04,5.5699c-3.29,2.64-2.9501,7.54-1.74,11.13
		c4.24,7.28,11.14,12.54,17.9199,17.32c16.79,10.47,36.8101,14.05,56.2301,15.7c6.87,1.25,13.9099,0.36,20.83,1.2
		c4.66,0.56,9.33-0.08,13.99-0.35c18.13,0.05,36.1-2.21,54.08-4.2599c44.17-6.48,88.5601-15.59,129.39-34.2401
		c25.27-12.3799,49.67-26.49,74-40.6c1.11-0.21,2.25-0.29,3.4301-0.22c-3.16,6.31-8.4401,11.14-13.4401,15.98
		c-16.46,14.91-34.3199,28.22-52.95,40.29c-32.95,21.15-68.42,39.28-106.59,48.74c-16.4301,4.03-33.12,6.79-49.89,8.79
		c-4.66,0.38-9.38,0.01-13.9601,1.06c-6.98,0.69-14.0299,0.09-21,0.92c-9.0299,0.22-18.08,0.27-27.08-0.5
		c-10.0599,0.25-19.96-1.4-29.96-2.12c-21.55-2.71-43.0801-6.74-63.5-14.35c-9.8401-3.82-19.54-8.4-27.78-15.09
		c-12.9399-10.66-25.41-21.89-38.67-32.15c-16.6499-13.1299-35.11-24.66-55.7799-30.11c-9.8601-2.52-20.0801-3.85-30.26-3.4
		c-8.74,0.7599-17.77,4.21-23.2201,11.38c-4.72,5.64-6.7,12.99-7.38,20.18c-1.0199,19.5,7.13,38.46,18.76,53.76
		c7.14,8.77,15.37,17.11,25.8101,21.87c15.59,7.72,35.78,5.86,48.99-5.72c3.22-3.19,6.5-7.26,6.33-12.04
		c-0.1499-3.76-3.34-6.44-6.4199-8.06c-12.2201-6.6-22.2201-16.96-29.2101-28.88c-0.13-0.76-0.3899-2.27-0.5199-3.03
		c4.45,2.07,9.4199,2.57,14.0299,4.23c23.91,7.64,48.23,16.03,68.53,31.2c8.28,6.46,16.6901,15.4,16.05,26.7
		c0.9399,11.02-3.3501,21.34-6.6801,31.59c-2.29,7.21-4.3199,15.72-0.12,22.64c4.24,7.0699,12.0701,10.73,19.51,13.49
		c21.03,7.11,43.5601,8.55,65.59,7.33c43.9601-2.58,87.35-11.58,129.7101-23.43c22.37-6.41,44.5599-13.61,66.08-22.5
		c19.04-7.57,37.0699-17.59,53.54-29.78c12.1599-8.73,23.01-19.07,33.72-29.46c2.46-2.23,5.08-4.35,8.01-5.95
		c2.41-0.97,5.1-0.56,7.66-0.7c0.6299,5.27-2.8201,9.5699-5.5801,13.65c-10.9199,14.94-24.1699,28-37.87,40.38
		c-27.89,24.6-59.0699,45.96-93.5599,60.17c-20.8201,8.49-43,12.67-64.8401,17.55c-26.7899,5.95-53.99,9.81-80.8999,15.2
		c-9.01,2.16-18.3301,4.41-26.03,9.82c-4.13,3.18-8.41,7.41-8.63,12.96c-0.53,5.72,3.12,10.85,7.26,14.41
		c8.48,6.96,19.5499,9.75,30.2899,10.67c7.7001,0.83,15.39-0.39,23.0901-0.6c29.72-3.25,59.33-8.83,87.72-18.42
		c9.22-3.3,18.34-7.09,26.47-12.62c18.47-11.69,37.47-22.51,56.3201-33.56c23.8999-14.79,47.75-29.67,71.6699-44.44
		c3.1-1.85,5.9301-4.5,9.85-4.38l-3.72-2.56c1.62,0.79,3.26,1.55,5.01,2.13c-4.17,1.58-6.37,5.5-9.26,8.6
		c-14.0599,16.5-29.5499,31.7-45.14,46.74c-16.1499,14.41-32.9299,28.38-51.8199,39.11c-34.77,19.77-71.38,36.81-110.01,47.48
		c-18.88,4.72-38.58,8.76-58.05,5.56c-5.7699-1.01-11.22-3.43-17.11-3.7c-3.9399-0.65-7.9399-1.31-11.87-0.32
		c-20.58,1.21-39.99,12.18-52.88,28.07c-4.9,6.6-9.46,14.27-9.01,22.79c0.15,19.53,9.9701,39.67,27.28,49.52
		c11.02,6.46,23.96,8.17,36.49,8.77c20.49-0.61,40.7001-5.15,60.0601-11.76c15.1899-4.83,30.08-12.79,39.72-25.86
		c11.87-16.04,14.73-37.41,29.15-51.77c7.46-8.06,17.11-13.72,27.1599-17.96c20.91-8.54,42.4301-15.5,64.17-21.56
		c19.1-5.04,38.38-9.71,58.02-12.1c3.64-0.86,7.39-0.67,11.11-0.52c-0.03,0.79-0.02,1.58,0.01,2.39
		c-16.58,8.07-33.77,14.75-50.58,22.28c-18.9501,8.38-37.7301,17.23-55.66,27.64c-8.1901,4.86-16.28,9.9901-23.46,16.28
		c-5.1901,4.9-10.9901,10.2-12.2401,17.6c-0.6499,8.43-0.72,17.26,2.9801,25.07c4.85,11.14,14.9099,20.02,26.7699,22.87
		c10.3601,3,21.4701,1.53,31.5901-1.71c17.4299-5.77,32.22-17.07,47.12-27.44c37.5599-27.64,72.61-58.51,106.85-90.11
		c-0.42,3.72-2.63,6.86-4.08,10.23c-17.37,35.33-39.37,68.71-67.25,96.65c-13.26,12.62-27.75,24.2-44.15,32.52
		c-17.76,9.35-37.64,13.54-57.28,16.75c-26.21,3.88-52.66,4.77-79.02,6.99c-2.87,1.09-6,0.65-8.95,1.25
		c-11.6801,1.83-23.76,4.31-33.6,11.24c-8.15,5.5701-12.9801,15.13-13.8101,24.85c-0.73,11.42-0.14,23.4601,5.29,33.79
		c4.74,9.59,14.0499,16.28,24.14,19.33c23.36,6.0901,47.6499,0.5601,70.2999-5.88l0.63-0.5399
		c19.9401-5.8301,39.03-14.48,57.26-24.4301c5.7001-3.26,11.35-6.63,16.63-10.5399c1.73-1.3501,3.78-2.2001,5.9301-2.7001
		c-0.0801,4.12-3.2101,7.11-5.3101,10.37c-11.58,14.9501-25.03,28.37-39.26,40.8c-15.48,13.5499-31.96,26.0399-49.71,36.46
		c-17.58,10.2-36.48,18.88-56.6801,22.09c-7.38,1.4501-15.0399,0.9-22.38,2.5601c-18.75,2.89-36.7799,12.47-48.49,27.5699
		c-11.5499,14.3-17.2799,32.79-17.3999,51.04c0.75,10.77,2.6799,22.13,9.6299,30.8199c5.01,6.7301,13.6801,9.76,21.8601,9.63
		c14.98-0.11,29.0199-7.6799,39.8899-17.58c4.2201-4.29,8.3301-9.0699,10.38-14.8199c0.6001-3.99,1.5-9.3101-2.3099-12.01
		c-5.5-3.86-12.58-4.0901-19.05-3.7201c-9.3199,0.88-17.5,5.7301-25.8099,9.6101c-2.3201,0.9199-5.49,2.63-7.65,0.5199
		c-2.53-2.1799-1.98-6.0599-0.3199-8.58c3.1799-5.23,7.8999-9.33,12.63-13.11c10.0699-7.62,21.46-13.48,33.5-17.26
		c8.2599-2.49,17.0299-4.05,25.6399-2.61c14.8301,2.8199,25.3601,15.85,30.5701,29.2999c4.39,9.9601,4.6799,20.9801,4.11,31.6801
		c-2.13,19.36-12.33,37.15-26.0601,50.7c-4.9399,5.13-10.4399,9.6801-16.1699,13.89c-14.38,10.38-27.59,22.48-38.51,36.48
		c-12.0701,15.3401-21.96,32.77-26.63,51.8301c-2.14,8.16-2.75,16.73-1.7,25.11c1.22,7.99,5.34,16.15,12.74,20.04
		c6.8199,3.1699,14.09,5.36,21.51,6.6c12.9399,2.73,26.24,1.45,39.35,2.08c0.59,0.34,1.77,1.01,2.36,1.35
		c-0.0601,1.4701-0.28,3.03-1.5701,3.9801c-8.3099,7.37-18.47,12.1899-28.4399,16.87c-18.61,8.0499-39.01,14.1-59.47,11.01
		c-19.86-0.29-39.9601,10.99-48.99,28.87c-3.17,5.6599-3.3201,12.5-2.0601,18.72c2.87,7.1699,9.64,11.5699,15.52,16.11
		c17.76,12.5,36.9399,22.78,55.41,34.17c6.9299,4.3999,14.09,8.6499,20.0299,14.3899c1.5701,1.3,1.5801,3.37,1.8101,5.26
		c-2.78,1.1901-5.72,2.16-8.76,2.13c-20.74-1.52-40.61-8.22-60.38-14.2799c-42.35-13.87-83.96-29.88-126.11-44.3401
		c-39.6801-12.5699-74.98-35.5499-108.2-60.1c-23.4701-17.1899-45.5901-36.16-69.41-52.86c-15.03-9.11-27.9901-21.08-40.86-32.9301
		c-12.13-11.87-24.46-23.5299-36.29-35.7c-14.26-14.34-28.51-28.71-43.36-42.4301c-11.28-10.36-24.11-20.09-39.43-23.21
		c-6.57-0.4399-13.82-1.36-19.72,2.24c-7.93,4.48-12.74,12.84-15.31,21.34c-1.13,4.2301-3.79,8.3501-7.99,10.03
		c-8.07,1.9601-16.21-1.0699-23.39-4.5699c-9.49-4.88-18.26-11.03-26.59-17.66c-0.75-0.66-2.5-1.34-3.03-0.17
		c-4.27,9.4401-5.04,19.9601-4.64,30.1901c-0.23,10.74,2.55,21.25,5.96,31.35c4.14,11.85,10.42,22.76,16.29,33.8101
		c19.29,37.2799,38.52,74.74,53.57,113.99c3.41,9.0599,6.47,18.2899,8.44,27.7799c0.48,5.0601,0.38,10.17,0.02,15.25
		c-4.24,5.9501-8.91,11.6101-12.92,17.7301c-1.8,2.4199-1.31,5.5399-1.31,8.37c6.55,6.5699,16.34,7.1699,24.75,9.87
		c9.53,2.5299,19.1299,6.46,25.92,13.88c7.82,8.76,11.27,20.5399,12.42,32.01c0.42,9.01,0.52,18.1599-1.59,27
		c-3.91,18.4099-11.9301,35.6499-21.11,51.98c-9.43,15.97-19.94,31.4399-32.69,44.97c-8.9,9.63-20.6,16.59-33.23,20.09
		c-3.61,1.2001-7.47,1.26-11.08,2.4301c-3.56-7.5601-5.47-15.75-8.47-23.53c-4.42-12.59-8.79-25.22-13.97-37.52
		c-3.25-7.76-7.82-14.84-11.72-22.26c-10.34-18.37-18.71-37.9099-24.21-58.2799c-2.88-10.2301-4.8-20.7001-7.48-30.9901
		c-4.93-20.11-10.72-40-16.43-59.8999c-5.16-18.74-10.92-37.51-12.38-56.9701c-4.62-42.2599-9.14-84.7-18.64-126.22
		c-3.77-14.3099-7.11-29.28-15.58-41.6799c-12.0699-15.25-20.53-33.3201-24.66-52.3101c-0.7-2.23-0.89-4.58-1.04-6.88
		c-6.76-6.3199-13.03-13.27-20.34-18.9299c-14.55-4.8401-29.64-8.02-44.8-10.1901c-6.69-0.26-13.29-1.74-20-1.25
		c-7.51,0.86-15.43,1.3-22.08,5.27c-7.54,4.77-11.52,13.39-13.56,21.79c-2.56,8.51-2.11,17.49-2.19,26.2799
		c0.11,8.02,0.07,16.1901,2.03,24.02c3.09,17.87,9.71,35.47,21.25,49.65c12.24,15.37,27.76,28.3,45.32,37.17
		c0.0099,2.2999-0.4,4.6-1.64,6.59c-4.65,0.62-9.33,1.04-14.01,1.37c7.02,16.3,18.15,31.4399,33.53,40.7
		c9.29,5.99,18.27,12.79,25.09,21.5901c-3.91,5.97-9.23,10.89-13.25,16.7799c-0.78,2.75-0.12,5.66-0.1,8.4901
		c4.8199,2.1799,10.28,1.6499,15.28,3.25c11.04,2.3099,21.17,8.7699,27.9,17.83c9.56,12.45,13.59,28.1899,15.01,43.5699
		c1.85,20.0901-0.4,40.25-3.73,60.0701c-2.54,14.24-5.94,28.35-10.66,42.0399c-2.25,5.12-4.2,10.5701-8.12,14.7201
		c-25.53-28.17-50.41-57.42-69.33-90.5701c-9.01-15.4199-18.28-30.72-26.54-46.5499c-7.67-3.7101-15.58-7.0801-22.38-12.3201
		c-15.44-10.9-27.01-27.9199-29.2-46.91c-0.34-6.2-1.48-12.3099-2-18.5c-1.75-10.8099-3.54-21.95-8.94-31.6399
		c-1.4-2.74-3.89-4.67-5.53-7.2101c-8.93-42.64-18.57-85.2-29.32-127.4399c-5.67-21.3301-11.08-42.84-19.2-63.41
		c-3.61-7.66-6.52-15.76-7-24.29c-1.84-29.23,14.46-58.7799,39.92-73.1399c10.74-6.2301,23.29-7.55,35.33-9.3
		c10.72-0.74,21.35-2.24,32.12-2.1901c12.31-1.12,24.7-0.6899,37.05-0.99c9.58-1.22,19.28-0.49,28.91-0.75
		c14.46-0.2999,28.9901,0.4301,43.39-1.21c9.94-1.79,20.05-3.76,29.36-7.77c0.1801-3.0499-1.84-5.51-2.98-8.16
		c-10.09-21.6499-19.46-43.6299-27.92-65.97c-7.28-20.3199-14.72-40.9-17.13-62.46c-1.22-22.14,5.51-43.74,13.31-64.19
		c9.16-23.4,20.62-45.79,31.73-68.3c5.52-10.48,9.95-21.52,13.33-32.86c7.66-27.39,11.44-55.7599,12.82-84.1
		c1.35-7.75,0.26-15.68,1.29-23.46c0.26-12.37,0.14-24.7599,0.06-37.13c-1.19-9.2599,0.03-18.67-1.46-27.89
		c-0.72-25.72-2.91-51.37-7.1-76.77c-3.94-21.6-15.48-40.73-26.62-59.29c-1.77,1.58-3.22,3.46-4.58,5.39
		C615.6,561.39,600.36,576.53,583.46,589.5c-12.63,9.84-26.68,17.58-40.43,25.69c-15.79,9.54-31.67,19.14-45.7,31.2
		c-13.9,11.54-25.07,25.87-35.64,40.42c-5.55,6.97-10.46,14.61-17.27,20.45c-5.69,5.03-13.91,4.83-20.91,3.43
		c-8.62-0.73-17.22-2.28-25.42-5.09c-5.05-1.71-9.23,2.17-13.87,3.34c-6.24,1.8-12.63,3.47-19.16,3.39
		c-11.73,0.32-22.7-4.45-33.95-7.01c-1.83-0.8-5.07-0.48-5.39-3.06c-3.28-19.44-6.3-38.92-9.37-58.4
		c-1.69-13.58-4.73-27.11-4.3-40.85c0.18-11.05,3.1-21.84,6.98-32.12c6.52-16.8,16.23-32.06,25.55-47.4
		c30.22-49.67,61.34-98.81,90.66-149.03c11.14-19.07,21.21-38.74,32.51-57.73c14.32-24.12,29.05-48.2,47.27-69.63
		c6.55-7.05,13.11-14.54,21.83-18.95c13.69-5.93,28.2401-9.63,43-11.63c-0.06-0.54-0.19-1.63-0.25-2.18
		c-6.66-7.33-16.88-10.54-26.59-10.17c-11.31-0.55-22.16,3.1-33.06,5.55c-7.47,1.65-14.7,4.26-22.08,6.16
		c2.93-6.12,8.89-9.88,13.77-14.31c11.71-8.99,24.79-17.12,39.58-19.59c13.51-1.21,27.28,0.89,40.6801-1.57
		c-3.5-9.95-12.02-17.52-21.6801-21.35c-11.2-4.5-23.5099-3.66-35.27-2.72c-5-0.28-9.81,1.27-14.77,1.42
		c0.07-0.55,0.19-1.63,0.26-2.17c2.15-1.5,4.31-3.02,6.7-4.12c9.35-4.37,19.15-7.83,29.26-9.95c5.73-1.49,11.78-1.56,17.63-0.89
		c6.1299,1.61,12.25,3.27,18.35,5c4.42,1.04,8.64,3.03,13.26,3.1c-1.89-11.22-3.03-22.56-4.49-33.85
		c-0.92-3.9-0.9301-7.91-0.95-11.89c1.47,0.37,2.96,0.74,4.32,1.45c17.53,8.66,35.16,17.1,52.71,25.71
		C658.97,131.06,661.01,130.72,662.74,129.91 M707.55,119.37c-10.95,6.03-20.72,13.91-30.06,22.14
		c-11.07,10.5-21.71,21.79-28.85,35.4c-0.09,0.54-0.27,1.62-0.36,2.16c-2.64,4.1-1.91,9.2-1.79,13.82c1.18,6,4.66,11.36,9.02,15.56
		c6.06,5.22,12.92,10,20.71,12.07c2.61-8.84,5.4301-17.62,7.9901-26.49c0.24-1.04,0.63-2.02,1.17-2.95
		c0.12-1.02,0.24-2.04,0.38-3.05c2.88-4.87,3.23-10.87,5.66-15.94c0.08-0.52,0.23-1.57,0.31-2.1c0.46-1.31,0.97-2.6,1.58-3.85
		c3.03-9.46,6.26-18.87,9.88-28.12c0.73-3.23,2.82-5.93,3.53-9.17c1.7-3.62,4.04-6.94,5.32-10.75
		C710.49,118.37,708.88,118.49,707.55,119.37 M615.43,126.04c0.68,5.75,2.53,11.3,3.29,17.05c1,2.16,1,4.6,1.52,6.9
		c0.47,3.86,2.06,7.49,2.3,11.38c0.89,1.04,1.79,2.08,2.7,3.12c8.05,0.81,14.81-4.94,20.8-9.54c-0.5-0.19-1.5-0.58-2-0.77
		c-8.8-9.95-18.61-19.01-27.4-28.96L615.43,126.04 M609.89,228.64c-4.11,1.38-8.71,1.04-12.99,2.05c-1.53,0.81-3.3,0.8-4.96,1.04
		c-2.19,1.01-4.75,0.34-6.89,1.48c-2.34,0.64-4.72,1.08-7.09,1.53c-2.47,1.35-5.5,1.05-7.89,2.59c-0.51,0.09-1.53,0.28-2.03,0.37
		c-1.04,0.35-2.07,0.71-3.09,1.08c-0.96,0.4-1.95,0.74-2.95,1.01c-20.97,7.31-39.58,20.33-55.03,36.14
		c-4.19,4.03-7.68,8.77-10.3,13.95c-0.73,2-1.07,4.1-1.33,6.21c-3.86,6.44-6.85,13.35-10.4,19.96
		c-10.21,19.77-20.42,39.53-30.87,59.17c-1.75,3.17-3.19,6.54-5.36,9.47c-0.14,0.5-0.42,1.51-0.56,2.01
		c-15.01,27.13-29.59,54.55-45.38,81.24c-13.06,22.66-27.34,44.61-40.72,67.08c-8.6,14.24-17.21,28.53-24.08,43.71
		c-3.67,8.82-7.66,18.26-6.05,28.02c0.35,3.29,2.35,6.08,2.83,9.34c1.73,4.71,1.83,9.79,2.99,14.65c0.88,3.34,0.22,6.98,1.55,10.2
		c0.11,5.04,1.41,9.98,1.16,15.05c-0.18,3.38,1.19,6.6,1.04,10c-0.19,7.11,1.19,14.13,1.04,21.25c2.21,0.35,4.41,0.82,6.53,1.57
		c2.5,1.16,5.38,0.45,7.92,1.54c10.46,0.84,21.47,0.69,30.98-4.3c4.07-1.87,7.17-5.3,11.33-6.97c8.67-4.24,17.96-8.08,24.5-15.46
		c1.44-2.11,0.64-4.84,0.82-7.21c-7.87-0.06-16.02,1.1-23.67-1.22c-1.02-0.39-2.05-0.71-3.09-0.98c-4.77-1.89-9.45-5.25-11.04-10.33
		c-2.2-5.08-1.17-10.75-0.08-15.95c1.76-7.8,5.4-15.36,11.26-20.91c4.55-4.33,11.31-6.85,17.49-4.85
		c7.02,2.52,11.69,8.81,15.38,14.98c4.21,6.54,8.12,13.4,10.48,20.83c0.1,1.64,0.12,3.27,0.17,4.93c5.31-1.06,7.6-6.59,9.92-10.86
		c0.08-0.51,0.24-1.54,0.32-2.05c0.36-1.01,0.73-2.02,1.09-3.02c0.72-1.56,0.83-3.26,1.06-4.92c0.47-2.03,0.77-4.11,1.34-6.11
		c0.96-8.29-1.16-17.02-6.55-23.49c-5.81-8.28-15.95-13.3-18.99-23.44c-0.2-3.02-0.17-6.04-0.02-9.05
		c2.45-7.41,8.36-12.95,15.26-16.2599c0.55-0.07,1.64-0.2,2.18-0.27c2.22-1.8,5.17-1.72,7.85-2.13c5.93-1.23,12.03-0.77,18.04-0.56
		c4.16,1.44,8.67,0.44,12.98,1.06c8.19,1.49,16.67,0.59,24.98,0.8c5.04-0.51,10.24-0.93,14.98-2.88c0.52-0.08,1.57-0.24,2.09-0.32
		c5.93-2.6299,11.81-5.58,16.94-9.64c11.32-9.21,20.84-21.06,25.75-34.92c1.5-2.01,1.25-4.75,2.71-6.76c0.07-0.53,0.2-1.58,0.27-2.1
		c0.49-1.35,1.0099-2.68,1.56-3.99c0.29-1.64,0.56-3.28,0.98-4.88c4.81-19.14,4.62-38.99,4.2-58.6c-6.12,0.2-12.32-0.42-18.37,0.77
		c-11.3,0.28-22.62,0.23-33.93,0.48c-0.34-6.06,0.7599-12.14,3.09-17.72c3.02-9.38,8.09-17.97,13.52-26.14
		c5.3-7.27,10.65-14.86,18.3-19.85c2.18-1.68,4.85-2.49,7.11-4.04c0.96-0.4,1.92-0.8,2.9-1.19c3.21-0.88,6.39-1.89,9.6-2.77
		c2.71-0.79,5.71-0.03,8.3-1.33c4.33-0.21,8.69-0.25,13.03,0c5.5,1.52,11.45,1.35,17.05,2.81c5.02-1.97,8.77-6.29,9.76-11.65
		c1.76-6.12,2.67-12.53,2.97-18.89c1.31-4.24,1.41-8.82,3.4-12.85c1.27-3.59,4.78-5.8,8.21-7.05c0.03-0.78,0.07-1.55,0.12-2.32
		c-2.07-1.19-4.21-2.26-6.41-3.19c-0.53-0.07-1.61-0.2-2.14-0.27c-0.92-0.59-1.92-0.97-2.9901-1.15
		c-3.58-1.34-7.48-1.86-10.8799-3.58c-0.54-0.07-1.63-0.21-2.17-0.27c-1.3-0.49-2.57-1-3.82-1.57c-1.42-0.48-2.8199-0.98-4.2-1.5
		c-3.5-1.72-7.26-3.33-9.7401-6.47c-2.5099-2.66-1.6299-6.6-1.43-9.89c2.76-11.34,8.99-21.38,15.1-31.18
		c2.15-3.1,3.84-6.6,6.75-9.09C619.27,226.8,614.46,229,609.89,228.64 M1028.05,239.78c-15.0101,1.81-29.86,4.99-44.27,9.56
		c-16.66,5.56-33.23,13.08-45.9301,25.52c-9.35,8.75-16.28,20.36-18.38,33.07c-1.65,7.21-1.18,14.71-0.7,22.03
		c1.14,3.5,1.08,7.29,2.45,10.75c9.5601,33.6,46.97,57.78,81.4901,49.45c13.72-3.34,25.08-14.07,30.05-27.19
		c3.75-7.77,4.84-16.6,3.46-25.08c-2.1699-7.55-8.58-13.09-15.66-15.98c-7.92-3.55-16.66-4.4-25.19-5.13
		c-5.55,4.99-11.2,9.92-17.19,14.38c-0.27-4.55,2.67-8.22,4.64-12.06c5.05-8.69,12.45-16.96,22.52-19.55
		c6.42-0.59,13.19-0.96,19.33,1.41c16.7999,6.89,32.1699,17.52,44.13,31.22c2.25,2.35,3.76,5.49,6.7799,7.01
		c-0.5199-11.28,1.88-22.95,8.42-32.32c7.8-11.4,20.52-18.33,33.5699-21.99c23.3501-5.29,46.9501-9.39,70.4901-13.8
		c-48.04-10.56-95.9601-21.57-143.9601-32.32C1038.72,237.65,1033.42,239.67,1028.05,239.78 M717.29,263.29
		c7,10.28,16.2,18.73,24.28,28.11c24.78,26.26,49.24,52.81,72.83,80.14C855.02,419.18,894.1,469,922,525.35
		c1.24,2.72,2.44,5.47,4.03,8.03c4.36,9.08,8.91,18.09,13.46,27.08c0.7,1.59,1.21,3.34,2.5,4.6c6.53,14.51,14.08,28.57,20.76,43.02
		c14.63,29.98,28.85,60.19,42.36,90.68c1.54,1.74,4.17,1.32,6.21,2.11c2.82,0.98,5.9,1.13,8.63,2.41c5.36,1.1,10.72,2.45,15.96,4.03
		c2.71,0.57,5.52,0.86,8.11,1.96c3.79,0.3,7.1799,2.26,10.98,2.58c2.95,0.9,5.99,1.5,8.97,2.34c5.3101,1.45,10.7001,2.62,16.01,4.11
		c0.52,0.1,1.5601,0.29,2.09,0.39c4.7101,1.52,9.5701,2.7,14.4401,3.77c0.3,0.3,0.91,0.9,1.21,1.21c-0.23-2.03-0.58-4.05-1.71-5.78
		c-16.5-37.16-35.1-73.37-54.77-108.96c-3.59-5.89-6.67-12.11-10.29-17.96C989.45,519.3,941.86,450.58,884.23,390.86
		c-7.64-8.69-16.11-16.61-24.2-24.86c-7.21-7.48-15.25-14.06-22.52-21.47c-20.59-18.72-41.95-36.71-64.96-52.42
		c-15.46-10.62-31.66-20.34-49.14-27.26C721.45,264.03,719.36,263.66,717.29,263.29 M714.36,291.94c0.34,13.05,0.86,26.19-1.1,39.14
		c-1.21,3.53-0.93,7.39-2.01,10.98c-1.31,3.89-1.91,8.01-3.1,11.96c-0.9901,2.22-1.69,4.54-2.4,6.86
		c-2.01,5.82-4.6,11.42-7.03,17.07c-5.77,17.68-4.06,37.42,4.01,54.12c3.33,6.94,7.7,13.46,13.73,18.35
		c0.47,0.01,1.42,0.05,1.89,0.06c0.1801-1.52,0.4-3.03,0.91-4.47c0.15-2.02,0.16-4.03,0.01-6.04c-0.47-0.99-0.7-2.03-0.68-3.11
		c0.05-8.92-0.27-17.86,0.06-26.77c1.0099-4.35,0.87-8.87,2.17-13.15c0.38-1,0.69-2.02,0.95-3.06c1.38-4.19,3.74-8.21,7.48-10.71
		c3.07-2.4,7.27-1.94,10.92-1.67c5.25,1,8.99,5.36,11.76,9.64c4.61,7.58,7.33,16.2,8.81,24.92c1.35,3.11,0.37,6.67,1.47,9.88
		c0.23,9.62,0.94,19.59-1.51,28.93c-0.62,4.84-2,9.57-3.95,14.03c-2.62,8.52-10,14.41-12.8,22.82c-0.94,4.72-0.93,9.7-0.01,14.43
		c3.06,8.33,10.08,14.23,17.06,19.29c0.93,0.09,2.79,0.27,3.72,0.36c-3.2599-11.08,0.11-25.22,11.15-30.59
		c4.92-3,11.17-1.75,15.71,1.38c9.95,6.92,16.96,17.19,22.45,27.83c5.14,10.72,8.91,22.58,7.28,34.61
		c-1.07,2.73-1.72,5.66-3.79,7.89c-0.07,0.57-0.2,1.7-0.27,2.27c-0.54,0.12-1.61,0.36-2.14,0.49c-3.33,3.05-7.72,4.6-12.16,5.06
		c-4.1,1.27-8.55,0.72-12.69-0.13c-5.02-0.02-9.46-2.54-14.34-3.36c-10.27-3.34-20.17-7.69-29.85-12.46
		c-9.02-4.68-18.02-9.38-26.89-14.31c-0.98-0.05-2.95-0.15-3.94-0.19c0.19,2.52,0.06,5.22,1.35,7.52
		c4.69,9.63,12.06,17.55,18.97,25.61c8.92,9.41,18.25,18.42,28.09,26.85c18.4,14.81,39.8199,25.22,61.18,35
		c1.41,0.57,2.81,1.2,4.17,1.92c4.4,1.81,8.74,3.79,13.16,5.58c1.89,0.92,3.9,1.6,5.86,2.41c3.06,1.11,5.98,2.58,9.09,3.58
		c14.48,5.76,29.14,11.17,43.96,16.02c7.23,2.5699,14.58,4.83,21.91,7.14c1.55,0.5,3.17,0.77,4.81,0.96
		c-0.48-6.82-3.29-13.19-4.54-19.87c-1.38-2.91-1.76-6.15-3-9.11c-4.51-15.12-9.9-29.94-15.51-44.69c-0.66-1.69-1.23-3.41-1.99-5.04
		c-0.55-1.42-1.03-2.84-1.49-4.26c-1.02-1.86-1.5-3.94-2.5-5.8c-0.51-1.4-1-2.8-1.49-4.18c-3.72-8.18-6.58-16.72-10.52-24.79
		c-13.47-32.15-28.47-63.76-46.09-93.86c-15.3199-26.9-32.21-52.9-49.66-78.48c-20.55-29.37-41.64-58.48-65.45-85.31
		C721.84,298.32,719.17,293.51,714.36,291.94 M1087.04,413.24c-5.04,0.23-10.03,0.96-15.03,1.53c-3.55,1.23-7.41,1.09-10.98,2.27
		c-13.49,3.21-27.55,8.35-36.5901,19.43c-6.6899,8.14-7.8099,19.39-6.3199,29.49c1.66,10.57,7.1,20.36,14.76,27.76
		c9.37,8.73,21.4399,14.45,34.0699,16.46c10.04,0.96,20.6101,0.91,29.9301-3.49c10.8-4.61,19.0699-14.21,22.95-25.19
		c1.38-5.5,1.64-12.25-2.7999-16.49c-6.8-6.82-16.85-8.83-26.0801-9.84c-3.9299-1.05-8.0199-0.64-12.0199-0.66
		c-5.5701,3.77-11.27,7.32-16.9901,10.84c-0.48-0.01-1.45-0.04-1.9399-0.05c1.65-0.45,2.67-1.49,2.64-3.27
		c3.79-6.12,8.52-11.79,14.5699-15.79c7.7101-5.39,17.53-7.03,26.7001-5.41c16.23,3.7,31.9099,11.86,42.52,24.93
		c2.4099,2.88,3.9299,6.38,6.3999,9.22c2.15-3.49,4.9301-6.56,7.99-9.28c13.4701-12.21,30.8101-19.14,48.2301-23.55
		c19.0499-4.52,39.1799-5.65,57.0599-14.25c3.48-1.96,7.98-4.72,7.4501-9.34c-5.2001-0.27-10.4-0.08-15.5701-0.44
		c-9.96-1.09-20.0599,0.1-29.97-1.39c-7.7001-0.24-15.4-0.24-23.09-0.44c-12.27-1.08-24.63-0.58-36.9301-1.1
		c-7.28-1.29-14.72-0.24-22-1.52c-5.05,0.22-9.9399-1.23-14.98-1.15c-12.3301-0.31-24.67-0.33-37,0
		C1091.67,412.6,1089.26,412.37,1087.04,413.24 M693.58,600.35c-0.31,9.89-0.23,19.79,0.16,29.67c1.39,8.17,0.09,16.55,1.5,24.71
		c0.38,2.72,0.25,5.47,0.3,8.21c1.41,13.97,0.72,28.07,1.12,42.1c1.25,8.9901,0.61,18.13,0.6,27.17L696,733
		c2.32,0.61,1.16,3.36,1.24,5.02c-0.14,0.49-0.44,1.46-0.58,1.95c-0.22,8.35-0.1299,16.71-0.49,25.0601
		c-1.04,4.25-0.43,8.66-0.93,12.98c-1.4,4.15-0.49,8.63-1.05,12.92c-0.93,2.28-0.76,4.76-0.95,7.17c-1.79,8.15-2.3,16.73-4.52,24.81
		c-0.4,2.4-0.8199,4.8-1.5,7.15c-1.67,4.56-2.5099,9.44-4.48,13.9c-2.18,8-7.06,14.9-10.57,22.2599
		c-15.11,27.54-30.98,54.76-43.47,83.64c-0.57,1.69-1.07,3.44-2.02,4.98c-0.6,1.74-1.02,3.58-2.08,5.1299
		c-0.09,0.51-0.2599,1.53-0.35,2.04c-0.48,1.29-0.99,2.58-1.55,3.86c-2.47,7.92-4.27,16-6.06,24.07
		c-0.53,9.97-3.45,19.96-1.35,29.95c0.1,6.11,1.23,12.15,2.56,18.11c0.55,1.98,0.51,4.11,1.42,6c0.11,0.51,0.32,1.52,0.43,2.02
		c0.54,1.27,0.79,2.64,1.03,4.02c0.95,1.9099,1.33,4.0399,1.93,6.1c0.66,1.22,1.08,2.53,1.45,3.89c0.29,0.98,0.64,1.9399,1.07,2.89
		c1.01,3.13,2.36,6.14,3.52,9.23c0.93,1.87,1.53,3.89,2.54,5.74c6.8,17.13,16.79,33.0699,20.9,51.1899
		c2.25,8.2201,5.33,16.1801,8.58,24.0601c0.8101,1.58,1.41,3.27,2,4.97c5.1,11.67,10.3701,23.28,16.07,34.67
		c3.26-0.2101,6.36-1.28,9.34-2.54c1.25-0.55,2.61-0.72,3.95-0.91c2.41-1.38,5.33-1.2799,7.75-2.62c2.03-0.63,4.1-1.14,6.09-1.89
		c1-0.3899,2.01-0.75,3.03-1.09c0.53-0.1,1.58-0.28,2.11-0.37c0.88-0.63,1.86-1.01,2.95-1.15c3.64-1.1499,7.32-2.1699,10.93-3.3999
		c1-0.3701,2.01-0.7201,3.04-1.04c0.52-0.1,1.55-0.3101,2.07-0.41c0.92-0.54,1.9-0.92,2.96-1.14c12.43-3.65,24.74-7.74,37.18-11.39
		c7.47-2.59,15.28-4.1599,22.63-7.0299c4.96-0.76,9.66-2.64,14.27-4.55c4.35-1.87,8-5.0601,10.3799-9.16
		c0.25-3.74,0.3101-7.49-0.06-11.2c-1.05-1.85-1.56-3.91-2.14-5.9c-2.7-5.87-5.79-11.55-9.21-17.02c-4.18-7.2-9.88-13.71-12.1-21.89
		c-0.75-2.1,0.06-4.24,0.71-6.22c0.99-0.75,1.97-1.51,2.96-2.26c6.68-0.9299,13.28,0.77,19.29,3.62
		c10.14,4.8301,19.66,11.79,25.79,21.36c3.16,4.7001,3.7599,10.88,8.31,14.66c0.69,0.04,1.39,0.09,2.1,0.17
		c1.51-1.9401,2.91-3.8401,3.25-6.38c0.47-7.01,0.5-14.0801-0.05-21.0801c-1.2-2.5199-0.17-5.5-1.48-7.97
		c-1.06-2.9-0.95-6.0699-2.01-8.95c-6.48-26.3401-20.71-49.73-33.91-73.13c-9.25-16.1801-18.55-32.36-29.1-47.73
		c1.57,0.22,3.15,0.61,4.46,1.59c27.9399,17.45,54.41,38.09,74.98,64.01c11.57,14.61,19.7,31.53,27.47,48.36
		c2.34,5.17,4.37,10.49,6.5,15.76c2.28,6.27,4.1,12.6899,6.05,19.0599c0.11,0.53,0.33,1.5801,0.43,2.1101
		c1.04,3.24,0.92,6.72,1.82,10.0199c-4.03,7.77-10.9301,13.41-17.1201,19.38c-17.58,14.91-37.52,26.88-58.53,36.28
		c-1.58,0.86-3.27,1.45-4.96,2.01c-3.52,1.72-7.2,3.03-10.83,4.48c-2.4301,0.76-4.82,1.62-7.1801,2.5601
		c-3.58,1.24-7.3199,2.01-10.81,3.46c-11.88,2.99-23.84,6.38-36.11,7.42c-5.22,1.37-10.86,1.5-16,3.5
		c-1.37,0.1699-2.76,0.33-3.97,1.0499c-2.03,0.53-4.08,0.9601-6.1,1.48c-36.33,11.1801-71.47,30.27-95.9,60.02
		c-3.52,3.7101-5.15,8.61-7.28,13.16c-2.22,4.9399-3.99,10.08-6.15,15.03c-0.07,0.5399-0.22,1.61-0.29,2.14
		c-0.48,1.2799-0.95,2.61-1.6,3.85c-0.63,2.35-1.05,4.78-1.95,7.0699c-0.86,5.65-2.61,11.29-2.09,17.0601
		c1.27,2.48,0.9,5.52,2.59,7.83c3.33,5.28,9.19,8.04,13.42,12.46c5.58,5.3301,8.73,12.54,11.53,19.5901c0.6,2.02,1.3,4,2.02,6.01
		c0.46,2.3999,1.2,4.74,1.95,7.08c0.14,3.45,2.11,6.47,2.27,9.92c2.08,11.0299,4.66,21.99,6.31,33.12
		c1.22,3.5299,1.6,7.2999,1.97,11.01c0.82,1.8899,0.85,3.99,1.47,5.98c0.17,1.6699,0.29,3.34,0.48,5.0499
		c1.69,5.14,1.7,10.7301,3.15,15.99c1.67,10.3101,3.43,20.67,5.38,30.92c0.86,7.09,2.65,14.01,3.49,21.1
		c1.61,4.0801,0.98,8.75,2.53,12.88c0.47,3.03,0.9301,6.0801,1.53,9.1c1.1,3.2301,1.24,6.7001,1.95,10.04
		c0.85,1.51,0.77,3.26,1.03,4.96c0.89,2.2101,0.56,4.67,1.44,6.92c0.31,1.3201,0.62,2.66,0.97,4.02c0.19,1.66,0.3,3.4,1.04,4.96
		c1.48,6.88,3.42,14.17,8.66,19.23c4.03,4.03,8.37,8.0801,10.37,13.5901c0.24,1.08,0.6,2.14,1.07,3.1899
		c0.12,0.5,0.3799,1.49,0.5099,1.99c0.64,1.63,0.68,3.38,0.87,5.13c1.36,2.4,0.6201,5.29,1.08,7.9401
		c1.03,2.51,0.51,5.2899,0.65,7.95c0.14,5.36-0.03,10.74,0.33,16.1c1.33,5.85,0.27,11.9,1.27,17.79c0.57,3.01,0.38,6.09,0.55,9.16
		c0.75,5.2799,1.81,10.5299,2.19,15.87c2.04,8.59,3.38,17.61,8.04,25.3199c1.21,1.22,2.4,2.5801,4.04,3.3101
		c3.58,0.59,7.18-0.5601,10.53-1.76c3.02-1.74,6.62-1.01,9.94-1.12c1.05,1,2.11,2,3.18,3.02c0.29,5.08,0.24,10.4099-1.83,15.1499
		c-0.26,1.36-0.48,2.77-0.87,4.14c-0.52,9.75,1.23,19.51,3.42,28.99c0.8,2.63,1.02,5.4301,1.97,8.05c0.8,2.3,1.03,4.76,2.12,6.99
		c0.11,0.5,0.33,1.52,0.44,2.02c0.49,1.64,0.94,3.27,1.46,4.9399c0.32,0.98,0.65,1.98,0.99,3c0.39,1.74,0.9,3.48,1.58,5.17
		c0.86,2.26,1.29,4.6801,2.39,6.88c0.62,2.99,2.16,5.71,2.66,8.76c5.53-2.54,10.47-6.23,15.32-9.86
		c22.74-17.2201,40.53-41.04,50.06-67.9501c0.32-1,0.67-1.98,1.05-2.9299c5.1201-17.23,6.65-36.13,0.08-53.1901
		c-3.24-7.97-7.41-16.0299-14.22-21.52c-9.36,4.5801-19.35,7.87-28.97,11.91c-5.63,2.5-11.55,4.3-17.05,7.09
		c-2.86,0.25-5.73,0.2001-8.59,0.0601c-3.79-2.21-5.86-6.11-6.79-10.26c-0.6-6.3199,1.29-12.62,4.35-18.09
		c3.89-6.89,10.2599-11.77,15.4-17.63c1.63-1.77,3.06-4.78,1.05-6.8c-4.14-4.2899-9.86-6.89-15.55-8.41
		c-12.72-4.2899-26.34-2.58-39.53-2.7599c0-3.4901-0.05-6.9901,0.34-10.4501c0.35-1.11,0.68-2.21,1.01-3.2999
		c2.15-4.3301,5.68-7.89,10.06-9.9601c4.63-1.6699,9.86-0.35,14.24-2.85c8.15-4.2,12.92-12.61,16.25-20.8099
		c0.91-2.65,0.85-5.5601,2.06-8.0801c0.42-4.6799,0.41-9.39,0.06-14.0599c-1.05-1.8501-1.14-4.03-1.88-5.9701
		c-1.5-3.71-4.15-6.7999-7.11-9.4199c-5.71-5.1801-9.78-11.8201-13.76-18.3301c-10.54-17.1799-18.8-35.63-29.49-52.72
		c-0.99-0.14-1.96-0.26-2.93-0.36c-0.33,5.73,0.92,11.29,1.49,16.95c0.83,1.87,0.6,3.92,0.67,5.92c1.23,8.64,1.96,17.35,2.27,26.09
		c0.17,0.4601,0.49,1.38,0.66,1.8401c0.11,6.0299,0.21,12.08-0.05,18.12c-0.71,1.4399-0.86,3.0499-0.98,4.6599
		c-1.18-0.09-2.34-0.1699-3.5-0.23c-0.79-3.03-2.78-5.5699-3.5-8.62c-0.58-1.25-1.11-2.53-1.62-3.77
		c-0.08-0.5399-0.24-1.6-0.33-2.13c-3.06-8.11-4.92-16.6499-7.56-24.9199c-0.18-1.37-0.44-2.73-1.01-3.9601
		c-1.22-5.0399-2.54-10.0599-4-15.0099c-0.89-3.7201-1.59-7.5-3.03-11.04c-0.13-1.0601-0.24-2.09-0.36-3.11
		c-0.96-1.48-1.07-3.3-1.55-4.92c-2.3-10-4.62-20.02-7.06-29.97c-1.77-9.05-4.38-17.9301-5.5-27.0801
		c-2.29-7.7599-2.69-16.1499-4.58-23.96c-0.54-10.01-2.44-20.2-0.11-30.14c2.1-4.0399,6.89-4.83,10.59-6.76
		c8.55-3.6699,16.93-8.97,21.77-17.1699c1.4-2.0701,1.24-4.7101,2.37-6.88c0.07-1.41,0.11-2.8,0.11-4.1801
		c-1.54-3.76-1.81-7.9299-2.97-11.8199c-1.78-9.14,4.2401-17.2001,10.59-23.01c6.07-5.41,12.87-10.0601,20.09-13.79
		c6.1-3.12,12.27-6.16,18.74-8.45c1.37-0.5701,2.79-1.0701,4.22-1.51c1.24-0.5601,2.52-1.05,3.82-1.48
		c1.79-0.3301,3.55-0.8401,5.25-1.54c4.52-1.52,9.36-1.9399,13.85-3.45c3.7-0.87,7.45-1.24,11.25-1.38
		c3.49-0.9501,7.11-0.8101,10.71-0.8101c10.48,0.1,20.71-2.48,31.12-3.27c4.73-1.76,10.07-1.0299,14.86-2.5299
		c3.03-0.54,6.05-1.13,9.1-1.53c5.53-1.5601,11.45-1.63,16.96-3.47c1.6299-0.1801,3.27-0.3401,4.92-0.51
		c3.48-1.5601,7.45-1.2101,11.01-2.51c6.11-0.87,12.03-2.67,18.16-3.4401c1.1-0.96,2.59-0.84,3.94-1.12
		c2.23-0.8099,4.68-0.53,6.9-1.41c2.95-0.85,6.07-1.0199,9-2c4.75-0.8199,9.35-2.45,14.14-3.0299
		c5.45,3.1499,10.51,7.0399,15.83,10.46c5.33,3.86,11.17,7.03,16.2,11.3c4.12,0.8199,7.79-1.4401,11.13-3.52
		c16.86-8.05,32.18-19.2101,45.7-32.0601c15.5701-15.53,25.98-35.14,36.38-54.28c9.7201-18.5099,18.4-37.5399,26.91-56.62
		c0.74-2.23,1.78-4.34,2.55-6.5599c0.3899-0.0701,1.1599-0.22,1.5499-0.29c0.52,1.5901,1.11,3.1901,1.92,4.7001
		c0.95,4.2699,2.15,8.5,2.88,12.83c0.4399,2.4-0.04,4.97,1.11,7.23c0.6,10.86,0.45,21.76,0.14,32.64
		c-0.9501,4.0601-1.02,8.21-1.16,12.36c-0.95,5.36-2.11,10.6801-3.08,16.04c-1.25,4.9299-1.98,10-3.35,14.9199
		c-0.8,2.6101-1.28,5.3-2.0601,7.92c-1.67,6.12-3.88,12.08-5.59,18.1901c-1.13,2.62-2.0701,5.3199-2.9301,8.0499
		c-1.01,1.85-1.5,3.9301-2.47,5.8101c-5.15,12.9099-12.22,25.0599-20.8201,35.98c-12.1699,15.08-27.3099,27.66-43.7,37.88
		c0.08,1.1,0.18,2.21,0.3,3.34c0.61,0.3,1.81,0.89,2.42,1.1901c6.7101,2.6699,14.14,2.4199,20.99,4.0499
		c2.04,0.1801,4.1001,0.3,6.16,0.42c2.47,0.63,4.9501,1.24,7.41,1.98c0.01,0.78,0.04,1.5699,0.08,2.38
		c-1.47,1.02-3.01,1.96-4.65,2.66c-6.84,2.9199-14.08,4.73-21.1399,6.98c-6.2201,1.36-12.4901,2.71-18.8701,2.89
		c-9.69,3.1699-20.13,0.59-29.93,2.58c-29.6,0.67-59.22-0.01-88.83,0.3101c-6.11-0.2001-12.11,1.11-18.22,0.9399
		c-6.67,1.24-14.37,1.33-19.37,6.61c-0.05,0.5601-0.14,1.6801-0.19,2.24c8.2,7.17,15.75,15.03,23.68,22.49
		c7.24,6.0901,13.52,13.2301,20.8,19.29c9.65,9.36,19.73,18.26,29.6,27.4c29.93,27.02,60.15,53.79,91.79,78.85
		c29.46,22.87,58.36,47.53,92.9,62.51c9.1799,5.83,18.72,11.08,28.71,15.41c2.6899,0.89,5.35,1.9399,8.13,2.6
		c1.01,0.26,2.03,0.54,3.0599,0.87c1.8,1.11,3.9301,1.54,5.8201,2.5599c1.71,0.4801,3.46,0.9301,5.1799,1.4901
		c1.54,0.6399,3.2101,0.8199,4.87,1.0599c1.9801,0.6,4.1101,0.6,6.03,1.46c9.29,0.5801,18.6901,2.13,27.97,0.4701
		c2.66-0.4501,5.4901,0.1499,8.03-0.9801c4.51-0.62,8.89-1.9299,13.17-3.49c1.8199-1.09,5.09-0.7699,4.6899-3.76
		c-1.63-0.46-3.22-0.95-4.8199-1.37c-0.97-0.49-1.92-0.97-2.86-1.4299c-28.15-10-52.37-32.29-62.39-60.71
		c-0.75-1.9801-1.14-4.0801-2.02-5.9801c-0.66-2.36-1.0699-4.76-1.51-7.1499c-2.22-7.75-1.61-15.9401-1.64-23.92
		c1.54-20.33,10.49-40.03,25-54.4c10.04-8.2999,17.61-19.53,22.23-31.67c0.4801-0.99,0.8201-2.0199,1.02-3.08
		c1.3401-2.08,1.88-4.51,2.42-6.87c0.11-0.52,0.33-1.54,0.4399-2.05c1.63-3.08,1.15-6.7599,2.6001-9.8999
		c0.1599-4.05,1.3999-7.9701,1.2999-12.02c0.0701-1.66-0.24-3.47,0.8101-4.88c0.36-10.0701,0.38-20.17-0.11-30.23
		c-1.54-6.13-0.7001-12.8-2.5-18.91c-0.9301-8.46-3.1101-16.7-5.01-24.97c-0.17-1.04-0.3401-2.05-0.5-3.04
		c-0.73-1.58-1.0701-3.29-1.4401-4.9399c-0.59-2.38-1.24-4.75-2.14-7.01c-0.0599-0.54-0.1899-1.62-0.25-2.16
		c-1.6899-2.26-1.3199-5.33-2.71-7.73c-0.6899-2-1.1899-4.05-1.99-5.98c-0.51-1.4501-0.99-2.88-1.48-4.29
		c-6.9301-18.54-15.39-36.5601-25.99-53.3101c-3.13-4.86-5.05-10.36-7.5-15.5099c-1.3101-6.3-3.0701-12.76-1.03-19.1201
		c2.72-11.0599,13.26-17.36,23.2-21.12c3.6801-0.8899,7.29-2.12,11.0601-2.6c6.0599-1.6599,12.4399-1.8099,18.7-1.74
		c0.4501-4.41-2.0499-8.1799-3.4399-12.1699c-2.12-4.64-3.73-9.51-6.3201-13.92c-11.3999-25.41-26.34-49.49-45.5699-69.74
		c-20.26-20.05-42.79-37.7401-62.15-58.73c-12.47-14.06-24.1-29.61-29.49-47.87c-2.6801-9.73-4.58-20.16-2.0601-30.13
		c1.8701-7.07,7.8701-12.88,15.04-14.42c9.3301-2.2,19.0601-0.72,28.27,1.4c1.02,0.27,2.0601,0.56,3.1,0.88
		c16.4,4.36,31.7001,11.8199,46.98,19.05c-0.75-0.56-1.48-1.11-2.2-1.64c-17.79-19.64-34.5-40.23-51.4401-60.61
		c-13.2799-13.41-29.34-23.68-45.5499-33.16c-16.1-9.46-32.9501-17.52-49.71-25.69c-8.79-3.76-17.39-8.02-26.3-11.5
		c-1.84-1.03-3.88-1.58-5.76-2.47c-11.53-5.03-23.34-9.41-35.01-14.04c-3.64-1.39-7.4-2.5099-10.96-4.03
		c-1.76-0.55-3.54-1.05-5.15-1.92c-1.03-0.32-2.05-0.62-3.06-0.89c-1.04-0.29-2.01-0.72-2.89-1.29c-0.54-0.07-1.6-0.19-2.14-0.26
		c-4.1-2.02-8.55-3.2-12.9-4.55c-1.08-0.1801-2.07-0.58-2.94-1.2c-0.52-0.08-1.57-0.23-2.09-0.31c-1.33-0.51-2.64-1-3.94-1.53
		c-3.12-0.57-6-2.01-9.12-2.55c-3.84-1.48-7.94-2.07-11.79-3.45c-9.76-2.46-19.7-4.47-29.13-7.99c-2.02-0.52-4.16-0.83-5.86-2.08
		c-1.44-0.45-2.86-0.9-4.24-1.44c-1.01-0.46-2.04-0.8-3.1-1.02c-14.98-6.61-29.78-13.77-43.81-22.21
		c-20.94-12.61-40.7-27.09-59.83-42.28c-9.78-7.64-19.2-15.79-29.62-22.56C697.79,599.94,695.56,600.41,693.58,600.35
		 M560.98,1174.75c-0.48,0.14-1.42,0.41-1.9,0.54c-8.52,0.2999-17.07-0.05-25.57,0.59c-6.1,1.21-12.51-0.33-18.5,1.34
		c-7.4,0.0701-14.7,1.13-22.08,1.4501c-5.89,1.2799-12.05,1.0599-17.87,2.5399c-3.38,0.4401-6.72,1.13-10.1,1.53
		c-2.54,1.11-5.37,1.1901-8.01,1.99c-16,4.49-26.45,19.34-32.25,34.12c-0.55,1.74-1.13,3.49-1.96,5.15
		c-0.25,1.3199-0.51,2.67-0.91,4c-1.43,4.22-2.05,8.67-2.64,13.09c-1.63,9.17-0.76,18.87,2.02,27.77
		c0.61,1.7001,1.11,3.47,2.08,5.03c0.65,2.02,1.07,4.13,2.03,6.0599c0.1,0.52,0.29,1.5601,0.39,2.0801c0.51,1.59,1,3.21,1.54,4.83
		c0.69,2.65,0.97,5.4301,1.95,8.03c1.47,2.48,0.8,5.48,1.98,8.0599c0.98,5.4301,3.02,10.62,3.47,16.14
		c1.75,4.78,2.02,10.02,3.49,14.92c0.51,3.02,1.22,6.01,2.05,8.98c0.17,1.6901,0.28,3.42,1.02,5.01c0.67,2.96,0.72,6.11,2.02,8.91
		c1.27,6.7799,2.77,13.52,4.59,20.1799c0.49,1.6,0.65,3.26,0.86,4.9401c1.26,2.51,1.53,5.34,2.04,8.0699
		c1.58,5.24,2.64,10.63,4.04,15.9301c1.38,4.65,2.67,9.35,3.97,14.0399c2.11,5.15,2.68,10.91,5.4,15.8101
		c0.42,3.11,2.01,5.85,3.11,8.76c1.59,4.0699,3.23,8.28,6.21,11.5699c1.11-8.22-1.35-16.2-2.12-24.3099
		c-1.62-4.1-0.93-8.77-2.49-12.91c-0.93-6.38-2.68-12.59-3.62-18.95c-0.55-1.67-0.99-3.37-1.42-5.04c-0.2-1.71-0.18-3.51-1.04-5.01
		c-0.18-1.03-0.34-2.04-0.48-3.03c-0.95-3.27-1.28-6.6799-2.16-9.95c-0.47-2-0.62-4.0701-1.31-5.98c-0.69-3-0.96-6.0901-2.02-8.98
		c-0.65-3.01-0.8-6.13-1.99-8.9801c-0.57-2.7-1.01-5.4099-1.56-8.09c-0.68-1.61-1.02-3.33-1.42-4.99c-0.17-1.6899-0.41-3.39-1-4.96
		c-0.32-1.35-0.63-2.6901-0.95-3.99c-0.53-2.7001-1.13-5.36-1.72-8.02c-0.51-1.99-0.7-4.05-1.34-5.98
		c-0.33-1.36-0.63-2.7201-0.93-4.04c-0.51-4.4301-2.1-8.64-2.62-13.0601c-1.16-3.1899-0.78-6.6899-0.59-9.99
		c0.38-4.01,3.66-6.88,7.19-8.3199c0.55-0.05,1.66-0.15,2.21-0.21c1.98-1.3301,4.47-1.4601,6.48-2.7101
		c9.01-5.38,13.85-16.48,12.78-26.76c-1.09-6.1499-3.21-12.09-5.52-17.87c-1.22-4.1699-2.22-8.83-0.67-13.0199
		c2.12-5.8,7.71-9.2301,12.98-11.8c1.84-1.02,3.92-1.49,5.75-2.55c1.98-0.8099,4.12-1.1699,6.09-2.02
		c0.51-0.1,1.53-0.3199,2.04-0.4299c1.65-0.47,3.33-0.87,4.95-1.47c5.31-1.4301,10.77-2.37,16-4c2.34-0.65,4.73-1.11,7.13-1.52
		c11.53-3.1901,23.33-5.36,34.99-7.99c2.89-1.14,6.03-1.26,9.03-1.9601c1.6-0.6699,3.28-1.08,4.96-1.49
		c1.01-0.1499,2.02-0.2899,3.05-0.4199c3.37-1.65,7.38-1.0601,10.81-2.62c3.37-0.89,6.75-1.7101,10.13-2.54
		c3.93-1.6801,8.61-1.6899,12.01-4.42c0.59-0.23,1.78-0.6799,2.38-0.9099c-2.43-0.5801-4.94-0.5901-7.41-0.53
		C587.01,1174.52,573.99,1174.34,560.98,1174.75 M493.63,1481.52c-4.15,5.45-7.87,11.28-10.64,17.5599
		c-1.71,7.3301-0.19,14.88,1.69,22.04c0.87,1.5601,1.49,3.26,2.03,4.99c4.21,9.83,10.73,18.39,17.69,26.41
		c1.09,0.0599,2.18,0.12,3.28,0.21c-0.47-4.33-1.5-8.5699-1.99-12.89c-0.22-1.99,0-4.0599-0.94-5.86
		c-0.34-5.34-0.33-10.7-0.03-16.03c1.18-2.63,1.39-5.6,2.89-8.09c2.34-5.1,7.28-8.21,12.33-10.17c1.69-0.0199,3.38-0.0099,5.09,0.02
		c8.91,2.73,14.43,10.6901,19.37,18.05c0.11,0.64,0.3199,1.91,0.43,2.55c0.47-1.1101,0.94-2.2001,1.41-3.28
		c0.3-1.01,0.65-1.99,1.05-2.9401c0.68-3.33,1.45-6.6799,1.38-10.08c-0.03-6.01,0.52-12.17-1.44-17.95
		c-3.49-9.0801-11.15-15.9701-20.16-19.3701c-3.65-0.7899-7.42-1.6799-11.11-0.6899C506.53,1467.47,499.62,1474.6899,493.63,1481.52
		 M581.96,1548.37c0.99,1.87,1.92,3.78,2.79,5.74c0.91,1.55,1.38,3.3101,1.97,5.03c0.4301,0.9,0.8,1.86,1.1,2.86
		c0.9,2.9399,1.61,5.9399,2.44,8.92c0.21,6.76,2.05,14.83-3.13,20.2699c-0.54,0.28-1.62,0.8301-2.16,1.1101
		c-0.77,0.0299-2.3199,0.08-3.1,0.11c-4.58-1.9-7.8-5.9701-10.05-10.25c-1.84-5.04-1.66-10.4-1.43-15.66
		c-0.5,0.01-1.49,0.03-1.99,0.03c-6.4901,8.5-11.04,18.2-16.13,27.5499c4.39,6.16,9.05,12.14,13.44,18.3101
		c11.46,15.16,22.12,30.9399,34.36,45.49c2.69,3.04,4.88,6.59,8.1,9.14c0.18,0.45,0.54,1.34,0.72,1.79
		c2.55-5.5701,5.51-10.9601,7.28-16.8501c0.27-1.0399,0.62-2.0299,1.07-2.98c1.05-4.98,2.16-9.9399,3.04-14.9299
		c0.56-11.3201,0.99-22.79-0.6201-34.02c0.17-3.78-0.91-7.4-1.84-11c-0.39-2.74-1-5.4501-2.12-7.98
		c-0.07-0.53-0.21-1.6101-0.28-2.15c-1.9-3.91-2.91-8.27-5.13-12.0701c-3.99-8.11-10.43-15.2999-19.17-18.2699
		C588.07,1548.3,585.01,1548.26,581.96,1548.37z"/>
	<path fill="#FE0000" stroke="#FE0000" stroke-width="0.0938" d="M806.03,869.27c3.85-1.35,8.02-0.52,12.0099-0.86
		c9.32,0.15,18.75-0.65,27.97,1.01c4.71-0.08,9.32,0.92,14,1.33c2.14,1.07,4.6,0.78,6.93,1.06c1.32,0.44,2.7,0.73,4.09,0.99
		c16.89,3.7,33.73,8.07,49.8199,14.49c1.69,0.57,3.39,1.17,4.98,2.02c3.15,0.97,6.06,2.58,9.08,3.9
		c17.38,7.7,34.02,17.13,49.46,28.24c8.82,6.82,18.02,13.7,24.08,23.25c0.01,0.98,0.04,2.95,0.05,3.94
		c-0.91-0.08-2.73-0.23-3.64-0.3c-16.13-10.08-32.54-20.69-51.4-24.75c-3.38-1.1201-6.93-1.3-10.44-1.42
		c-5.91-1.4-12.09-0.35-17.91,0.94c-3.72,1.3-7.22,3.92-8.5,7.77c-1.43,6.89,1.42,13.79,5.47,19.26
		c9.03,12.24,21.78,21.38,35.76,27.18c1.41,0.48,2.84,0.95,4.28,1.43c2.18,1.1,4.62,1.42,6.98,2.01
		c17.4901,4.01,34.67,9.93,50.44,18.63c10.2401,5.6,20.47,11.98,27.9901,21.07c1.8199,1.86,0.9,4.6299,0.89,6.94
		c-3.79-0.12-7.79,0.72-11.39-0.74c-4.37-0.4-8.77-0.3301-13.13-0.0601c-1.78,1.1901-4.07,0.65-5.96,1.51
		c-8.09,1.3-15.41,5.27-22.33,9.4501c-5.58,3.73-11.73,7.23-15.2,13.2c-0.02,1.52-0.02,3.05-0.02,4.59
		c2.37,2.38,5.31,4.02,8.51,5.04c0.53,0.08,1.5699,0.23,2.1,0.3099c1.05,1.04,2.65,0.8201,4.01,1.14
		c3.96,0.8201,7.95,1.92,12.03,1.8101c6.05-0.25,11.83,2.2999,17.91,1.85c10.92-0.23,21.75,0.95,32.66,1.05
		c-0.0499,0.88-0.14,2.6399-0.1899,3.5199c-7.7201,16.87-20.66,30.6101-33.92,43.3c-6.52,5.53-12.74,11.48-19.94,16.13
		c-8.61,5.5601-17.93,9.98-27.65,13.26c-4.28,1.47-8.61,2.89-13.03,3.9299c-2.78,1.3501-5.99,1.3-8.94,2.05
		c-3.81,1.4-7.95,1.41-11.88,2.22c-10.56,1.99-21.34,1.8201-32.03,1.5601c-2.7401,0.08-5.3101-0.9-7.61-2.3
		c0.02-0.78,0.06-1.5599,0.1-2.3199c4.53-4.26,10.9-5.6901,15.46-9.92c4.48-3.96,7.23-9.4399,9.31-14.9399
		c0.93-3.99,2.2401-7.9,2.6-11.99c2.34-10.1901,1.71-20.6801,1.77-31.0601c0.06-12.42-0.66-25.1799-4.9-36.92
		c-0.41-1.7599-0.85-3.5099-1.46-5.1899c-7.7-19.53-19.59-37.11-32.84-53.28c-12.43-15.49-26.78-29.28-40.97-43.13
		c-25.53-23.16-52.37-45.03-81.06-64.2c-0.02-0.39-0.06-1.16-0.08-1.55c1.53-0.55,3.08-1.08,4.64-1.54
		c4.69-1.02,9.31-2.5,14.12-2.84c2.37-1.48,5.38-0.3701,7.91-1.52C800.01,869.48,803.03,869.58,806.03,869.27z"/>
</g>
</svg>
