<?xml version="1.0" encoding="utf-8"?>

<!DOCTYPE svg PUBLIC "-//W3C//DTD SVG 1.1//EN" "http://www.w3.org/Graphics/SVG/1.1/DTD/svg11.dtd">
<svg version="1.1" id="Layer_1" xmlns="http://www.w3.org/2000/svg" xmlns:xlink="http://www.w3.org/1999/xlink" x="0px" y="0px"
	 viewBox="479.9531 -0.0469 1600.0938 1600.0938" enable-background="new 479.9531 -0.0469 1600.0938 1600.0938"
	 xml:space="preserve">
<rect x="480" fill="#140B0C" stroke="#140B0C" stroke-width="0.0938" width="1600" height="1600"/>
<linearGradient id="_x23_fe0000ff_1_" gradientUnits="userSpaceOnUse" x1="682.3506" y1="1222.0206" x2="1811.8589" y2="92.5125">
	<stop  offset="0" style="stop-color:#CBAC66"/>
	<stop  offset="0.0667" style="stop-color:#B79A49"/>
	<stop  offset="0.097" style="stop-color:#B79A49"/>
	<stop  offset="0.1273" style="stop-color:#D5C07B"/>
	<stop  offset="0.1636" style="stop-color:#D5C07B"/>
	<stop  offset="0.1788" style="stop-color:#D4BE78"/>
	<stop  offset="0.1893" style="stop-color:#D1B86F"/>
	<stop  offset="0.1983" style="stop-color:#CBAD60"/>
	<stop  offset="0.2065" style="stop-color:#C49E4A"/>
	<stop  offset="0.2141" style="stop-color:#BA8A2E"/>
	<stop  offset="0.2182" style="stop-color:#B37D1C"/>
	<stop  offset="0.2794" style="stop-color:#AF7819"/>
	<stop  offset="0.3477" style="stop-color:#A26B12"/>
	<stop  offset="0.3515" style="stop-color:#A16A11"/>
	<stop  offset="0.4121" style="stop-color:#A16A11"/>
	<stop  offset="0.4424" style="stop-color:#F0C757"/>
	<stop  offset="0.4727" style="stop-color:#F3EFE4"/>
	<stop  offset="0.5091" style="stop-color:#F3EFE4"/>
	<stop  offset="0.5758" style="stop-color:#F3EFE4"/>
	<stop  offset="0.6061" style="stop-color:#F0C757"/>
	<stop  offset="0.6364" style="stop-color:#A36B17"/>
	<stop  offset="0.6788" style="stop-color:#A36B17"/>
	<stop  offset="0.7152" style="stop-color:#45200E"/>
	<stop  offset="0.8242" style="stop-color:#45200E"/>
	<stop  offset="0.8288" style="stop-color:#4B2713"/>
	<stop  offset="0.8353" style="stop-color:#5C3A20"/>
	<stop  offset="0.8431" style="stop-color:#795936"/>
	<stop  offset="0.8517" style="stop-color:#A08454"/>
	<stop  offset="0.8606" style="stop-color:#CFB878"/>
	<stop  offset="0.9273" style="stop-color:#BF9C4E"/>
	<stop  offset="0.9455" style="stop-color:#C1A055"/>
	<stop  offset="0.9715" style="stop-color:#C7AB68"/>
	<stop  offset="1" style="stop-color:#D0BB84"/>
</linearGradient>
<radialGradient id="_x23_fe0000ff_2_" cx="1280.0914" cy="799.5854" r="684.4529" gradientUnits="userSpaceOnUse">
	<stop  offset="0" style="stop-color:#FFF6C5"/>
	<stop  offset="0.0243" style="stop-color:#FFF6C5"/>
	<stop  offset="0.0251" style="stop-color:#E6D9AC"/>
	<stop  offset="0.0263" style="stop-color:#CBBA91"/>
	<stop  offset="0.0277" style="stop-color:#B39E79"/>
	<stop  offset="0.0292" style="stop-color:#A08866"/>
	<stop  offset="0.031" style="stop-color:#927758"/>
	<stop  offset="0.0332" style="stop-color:#876C4D"/>
	<stop  offset="0.0362" style="stop-color:#826548"/>
	<stop  offset="0.0448" style="stop-color:#806346"/>
	<stop  offset="0.0466" style="stop-color:#806346"/>
	<stop  offset="0.0578" style="stop-color:#806346"/>
	<stop  offset="0.0595" style="stop-color:#92704E"/>
	<stop  offset="0.0618" style="stop-color:#A57E56"/>
	<stop  offset="0.0646" style="stop-color:#B3885C"/>
	<stop  offset="0.0681" style="stop-color:#BB8D60"/>
	<stop  offset="0.0746" style="stop-color:#BD8F61"/>
	<stop  offset="0.1007" style="stop-color:#FFD4A6"/>
	<stop  offset="0.1119" style="stop-color:#FFD4A6"/>
	<stop  offset="0.1124" style="stop-color:#FACD9E"/>
	<stop  offset="0.1149" style="stop-color:#E2B179"/>
	<stop  offset="0.1175" style="stop-color:#CE985A"/>
	<stop  offset="0.1204" style="stop-color:#BE8441"/>
	<stop  offset="0.1235" style="stop-color:#B2742D"/>
	<stop  offset="0.1272" style="stop-color:#A9691F"/>
	<stop  offset="0.1317" style="stop-color:#A46317"/>
	<stop  offset="0.1399" style="stop-color:#A26115"/>
	<stop  offset="0.2146" style="stop-color:#A86C32"/>
	<stop  offset="0.2187" style="stop-color:#AB6F36"/>
	<stop  offset="0.2224" style="stop-color:#B37941"/>
	<stop  offset="0.226" style="stop-color:#C08A53"/>
	<stop  offset="0.2295" style="stop-color:#D3A26D"/>
	<stop  offset="0.2329" style="stop-color:#ECC18E"/>
	<stop  offset="0.2351" style="stop-color:#FFD9A8"/>
	<stop  offset="0.2463" style="stop-color:#FFD9A8"/>
	<stop  offset="0.252" style="stop-color:#EBC594"/>
	<stop  offset="0.2636" style="stop-color:#B69261"/>
	<stop  offset="0.2668" style="stop-color:#A78352"/>
	<stop  offset="0.2836" style="stop-color:#A78352"/>
	<stop  offset="0.2857" style="stop-color:#B18955"/>
	<stop  offset="0.2943" style="stop-color:#D39D5E"/>
	<stop  offset="0.3013" style="stop-color:#E8A964"/>
	<stop  offset="0.306" style="stop-color:#F0AE66"/>
	<stop  offset="0.3451" style="stop-color:#F1B370"/>
	<stop  offset="0.3463" style="stop-color:#ECAE6A"/>
	<stop  offset="0.3531" style="stop-color:#D4924A"/>
	<stop  offset="0.3596" style="stop-color:#C27E33"/>
	<stop  offset="0.3658" style="stop-color:#B87226"/>
	<stop  offset="0.3713" style="stop-color:#B46E21"/>
	<stop  offset="0.3899" style="stop-color:#93571B"/>
	<stop  offset="0.4067" style="stop-color:#93571B"/>
	<stop  offset="0.4083" style="stop-color:#9F6427"/>
	<stop  offset="0.4131" style="stop-color:#C18649"/>
	<stop  offset="0.4177" style="stop-color:#D99E61"/>
	<stop  offset="0.4219" style="stop-color:#E8AD70"/>
	<stop  offset="0.4254" style="stop-color:#EDB275"/>
	<stop  offset="0.4459" style="stop-color:#FFFFF3"/>
	<stop  offset="0.4703" style="stop-color:#FFFEF1"/>
	<stop  offset="0.4841" style="stop-color:#FFFAE8"/>
	<stop  offset="0.4951" style="stop-color:#FEF3DB"/>
	<stop  offset="0.5048" style="stop-color:#FDE9C7"/>
	<stop  offset="0.5135" style="stop-color:#FCDDAE"/>
	<stop  offset="0.5214" style="stop-color:#FBCE8F"/>
	<stop  offset="0.528" style="stop-color:#FABE6F"/>
	<stop  offset="0.5784" style="stop-color:#FAC47C"/>
	<stop  offset="0.6082" style="stop-color:#4E2100"/>
	<stop  offset="0.7015" style="stop-color:#4E2100"/>
	<stop  offset="0.724" style="stop-color:#502301"/>
	<stop  offset="0.7321" style="stop-color:#572802"/>
	<stop  offset="0.7369" style="stop-color:#603005"/>
	<stop  offset="0.7558" style="stop-color:#6F3909"/>
	<stop  offset="0.7794" style="stop-color:#793F0C"/>
	<stop  offset="0.806" style="stop-color:#7D410D"/>
	<stop  offset="0.822" style="stop-color:#7F430E"/>
	<stop  offset="0.8309" style="stop-color:#874911"/>
	<stop  offset="0.838" style="stop-color:#955317"/>
	<stop  offset="0.8442" style="stop-color:#A9621E"/>
	<stop  offset="0.8498" style="stop-color:#C27528"/>
	<stop  offset="0.8549" style="stop-color:#E18D34"/>
	<stop  offset="0.8582" style="stop-color:#F99F3E"/>
	<stop  offset="0.8662" style="stop-color:#F99F3E"/>
	<stop  offset="0.8675" style="stop-color:#F99F3E"/>
	<stop  offset="0.8778" style="stop-color:#FBBF63"/>
	<stop  offset="0.888" style="stop-color:#FDD982"/>
	<stop  offset="0.8968" style="stop-color:#FFE994"/>
	<stop  offset="0.903" style="stop-color:#FFEF9B"/>
	<stop  offset="0.9063" style="stop-color:#F7CA70"/>
	<stop  offset="0.9098" style="stop-color:#F0AA4B"/>
	<stop  offset="0.9133" style="stop-color:#EB902E"/>
	<stop  offset="0.9168" style="stop-color:#E77E1A"/>
	<stop  offset="0.9202" style="stop-color:#E5740D"/>
	<stop  offset="0.9235" style="stop-color:#E47009"/>
	<stop  offset="0.9255" style="stop-color:#D66908"/>
	<stop  offset="0.9315" style="stop-color:#B15706"/>
	<stop  offset="0.9378" style="stop-color:#924804"/>
	<stop  offset="0.9443" style="stop-color:#7A3C02"/>
	<stop  offset="0.9513" style="stop-color:#693401"/>
	<stop  offset="0.9588" style="stop-color:#5F2F00"/>
	<stop  offset="0.9683" style="stop-color:#5C2D00"/>
</radialGradient>
<path id="_x23_fe0000ff" fill="url(#_x23_fe0000ff_1_)" stroke="url(#_x23_fe0000ff_2_)" stroke-width="4" d="M927.4047,109.125
	c18.8-8.775,37.5417-17.6917,56.4333-26.2583c-0.2499,2.2333-0.5333,4.4833-1.2333,6.625
	c-2.9333,11.1333-5.8917,22.325-7.15,33.7917c-0.075,3.8583-0.375,7.7833,0.3917,11.6c0.9583,4.6,3.9916,8.325,6.65,12.0667
	c4.1667,5.175,8.55,10.225,13.6833,14.4833c3.375,3.0417,7.025,5.75,10.2584,8.9667c8.1,6.5167,18.575,9.05,28.6833,10.4167
	c20.3916,1.9583,40.9166-0.95,60.6833-5.9583c12.9166-2.9417,26.0917-4.6917,39.2917-5.6583
	c6.5833-0.825,13.275-0.0417,19.8417-1.0833c8.3834-0.3333,16.7917-0.125,25.1833-0.15c3.3833-0.1083,6.6833,0.8833,10.0751,0.6917
	c12.7583-0.075,25.4333,1.1417,38.1166,2.175c19.2916,1.825,38.5583,4.3083,57.6333,7.6917c20.55,3.6,40.9667,8.15,60.8584,14.4917
	c9.5249,3.075,18.95,6.5583,27.925,11.0083c8.0499,3.825,16.5667,6.6417,25.2832,8.4833c6.1,0.6417,12.2917,2.1083,18.4167,0.6667
	c6.9417-0.7667,14.0833-3.2333,18.9083-8.5c2.5416-2.525,4.5249-5.9167,4.275-9.625c0.425-3.925-2.15-7.4917-5.4667-9.2917
	c-7.3834-4.0583-15.05-7.5667-22.5334-11.4167c0.1667-1.0167,0.4418-2.1083,1.4917-2.5583c5.8667-3.375,13.05-3.1417,19.4667-1.7167
	c10.55,2.45,20.0417,8.0917,28.6084,14.55c10.3333,7.9667,21.7167,14.5,33.6083,19.85c17.15,7.725,35.4584,13.1583,54.2168,14.95
	c8.9249,0.375,18.0665,0.725,26.7583-1.75c6.4667-1.6417,13.4999-4.8083,16.2916-11.3167c1.6583-4.4583,0.775-9.525-1.3417-13.6833
	c-3.6833-7.2083-9.8-13.3667-17.4667-16.225c-4.1084-1.6583-8.6166-0.9917-12.925-1.0583c-0.025-0.4833-0.0833-1.4583-0.1166-1.9417
	c1.7167-1.575,3.6083-2.9833,5.7666-3.9167c9.1583-4.1333,19.675-5.2333,29.4667-2.9583c8.5,1.9333,15.9667,7.0833,21.7083,13.5333
	c17.7167,18.0333,41.3251,29.6333,65.8002,35.275c9.8916,1.9167,20.1499,3.55,30.1749,1.5333
	c13.9249-3.775,25.6083-12.6083,37.9916-19.65c15.2751-9.0167,31.9167-16.225,49.5751-18.775c11.6-2.1417,23.4667-1.4583,35.2-1.275
	c18.2584,1.4333,36.3083,5.15,53.775,10.675c8.8834,2.8833,17.6917,6.1167,26,10.4333c0.2333,0.3583,0.7084,1.0833,0.95,1.45
	c-4.95,0.1417-9.775-1.05-14.5999-1.925c-9.3834-1.35-18.6667-3.3333-28.125-4.1333c-7.1251-1.4083-14.4501-1.2167-21.6167-2.3167
	c-15.6917-0.425-31.55-0.8833-47.0084,2.2667c-10.3666,2-20.725,5.3333-29.3916,11.5167
	c-17.2916,13.2166-37.1417,23.3833-58.45,28.1583c-8.8,2.2-17.8667,2.9667-26.8667,3.725c-7,0.3417-13.9083-0.575-20.8667-1.0833
	c-8.675-0.8417-17.075-3.2083-25.6667-4.5417c-9.7749-0.7667-19.7249-0.275-29.1083,2.7333
	c-7.3916,2.2917-14.7666,5.975-19.5582,12.2333c-2.2667,3.2417-3.9501,7.1833-3.4001,11.2083
	c0.7834,5.6584,4.2417,10.5417,8.2334,14.4583c6.7001,6.1917,15.6833,9.075,24.4833,10.6917
	c17.0583,3.0083,34.5084,1.775,51.5751-0.4583c25.025-3.6167,49.8167-9.575,73.3417-18.9417
	c16.2-6.9833,32.7583-13.1833,49.7-18.1333c18.1417-5.3,36.6667-9.5917,55.5084-11.3917c4.45,0.1583,8.7999-1.1167,13.2666-0.85
	c3.3667-0.175,6.7167,0.2583,10.0667,0.6084c15.0167,0.1083,30.0917,0.9583,44.7416,4.4583c-0.0833,0.75-0.1499,1.5083-0.2,2.2583
	c-8.5083,0.2833-16.9249,1.5833-25.4083,2.1167c-18.125,1.675-36.2083,3.8583-54.1749,6.8584
	c-15.1583,2.7083-30.2833,6.025-44.7667,11.3583c-7.7583,2.9666-15.2833,6.7417-21.6917,12.0833
	c-14.9667,10.25-32.575,15.6084-49.7916,20.725c-18.7584,5.0667-37.8251,9-57.0751,11.6083
	c-12.725,1.6167-25.4916,3.075-38.3417,2.9666c-10.2499,0.0917-20.7499,0.075-30.5916-3.1917
	c-5.9-1.7833-9.8-6.8333-13.9917-11.0167c-10.925-12.725-19.275-27.6833-31.9584-38.875c-9.4083-8.9667-21.4999-14.95-34.2583-17.3
	c-7.8167-1.0833-15.8083-2.2167-23.6333-0.6083c-8.2417,0.8417-17,4.075-21.9834,11.025c-3.2417,4.0833-2.825,9.675-2.1167,14.525
	c2.1334,6.7,7.9418,11.5833,14.1918,14.3917c16.075,6.8666,33.2832,10.3333,50.1582,14.6167
	c4.1584,1.1833,8.5834,2.025,12.2084,4.55c-0.0083,0.4-0.0332,1.2-0.0416,1.6c-1.875,1.25-4.0167,1.95-6.1583,2.5167
	c-14.2416,3.1584-28.9834,2.85-43.4166,1.55c-17.2916-1.8917-34.525-6.3083-49.8584-14.7083
	c-16.525-9.6-33.8584-17.8667-51.85-24.325c-16.8583-5.8333-34.4834-10.8833-52.5-10c-4.275,0.1167-8.95,1.1583-11.7084,4.725
	c-5.4166,6.15-5.0667,14.9417-4.2999,22.575c2.1499,11.3833,8.7667,21.8083,17.95,28.8333
	c11.3251,8.9,25.7167,12.9083,39.8916,13.9917c13.2584,0.3333,26.5251,0.05,39.7833,0c11.6833,0.075,23.3251-0.9084,35.0167-0.8833
	c10.225-1.2417,20.5667-0.6334,30.85-1.0833c8.0583-0.8333,16.125,0.2833,24.2001,0.125c6.9332,0.1417,13.875,0.1583,20.7999,0.4583
	c5.8,1.0167,11.7251,0.3417,17.55,1.1c4.3917,0.5083,8.8417,0.0167,13.225,0.6917c3.8584,0.7583,7.8251,0.325,11.7334,0.65
	c8.5583,1.025,17.2333,0.2667,25.775,1.4833c11.4249-0.0667,22.8083,0.925,34.2333,0.6333c7.1666-0.725,14.3917-0.35,21.5834-0.75
	c6.2333-0.95,12.5499-1.05,18.825-1.7917c34.575-5.1,68.6833-12.8917,102.5917-21.3417
	c30.1917-7.9333,60.4417-15.8167,91.225-21.1083c6.1334-0.775,12.275-2.2667,18.4834-1.1917
	c-7.925,3.8416-16.3667,6.425-24.5416,9.6333c-33.5834,12.3833-67.3584,24.2833-101.5334,34.9083
	c-25.925,7.7833-52.0834,15.7333-79.175,17.9417c-4.5249,0.8333-9.1666,0.2667-13.6749,1.1917
	c-7.0917,0.575-14.225,0.0417-21.3,0.8333c-10.8417,0.0833-21.6833,0.0334-32.5166,0.0167c-9.7083-0.8-19.4667-0.3083-29.1917-0.525
	c-13.3168,0.125-26.6584-0.3833-39.9417,0.6083c-4.4501,0.1-8.9333-0.0916-13.3083,0.8417c-9.775,0.1417-19.475,1.6833-29.05,3.5417
	c-1.0583,0.1083-2.0583,0.15-3.0834,0.1833c-0.025,0.2667-0.0667,0.8083-0.0917,1.0833c-5.825,0.7083-11.225,3.3917-16.2083,6.3583
	c-5.7917,3.4333-10.5583,8.7417-12.6917,15.1917c-1.0084,5.9083-0.7168,12.3,2.7084,17.4333
	c7.0667,11,19.9916,16.5417,32.4666,18.6166c8.5834,1.75,17.4084,1.025,26.1084,0.925c7.6917-1.2,15.5249-0.3,23.2333-1.35
	c9.175-0.175,18.2584-1.4167,27.4167-1.8583c25.975-2.5417,52.0166-5.525,77.5-11.425c8.8082-2.2667,17.6917-4.6417,25.7832-8.9
	c22.3918-12.575,47.7751-17.85,72.2167-24.925c7.8668-2.1167,15.2501-5.6333,23-8.1083
	c26.3418-8.825,52.8751-17.1583,79.7833-24.125c4.5834-0.9084,9.0834-2.2917,13.7834-2.5167
	c0.0166,0.35,0.0583,1.0417,0.0833,1.3833c-14.95,7.3667-30.6749,12.9667-46.1333,19.1417
	c-34.7084,13.3833-69.5416,26.4333-104.2167,39.9167c-16.275,6.4833-32.65,12.75-48.6,20.0083
	c-10.8251,5.0917-22.4333,8.2333-34.025,10.9833c-22.225,4.5833-44.8167,7.2667-67.475,7.9583c-6.0583,1-12.2167,0.525-18.3167,0.75
	c-11.9667,0.0583-23.9333,0.0167-35.9-0.2667c-0.85-0.0667-1.675-0.225-2.4667-0.4833c-5.875-0.1333-11.7-0.775-17.55-1.1333
	c-9.1833-1.4-18.6166-2.0917-27.3165-5.5917c-4.7417-2.05-8.8418-5.3833-13.7584-7.025
	c-5.3417-2.0167-10.9083-3.3333-16.5167-4.2583c-6.2083-1.6167-12.6666-1.6583-19.0332-1.5334
	c-6.4751,0.025-13,2.0084-18.2834,5.775c-3.8833,2.7167-6.4916,7.4084-6.1416,12.2083c1.9833,7.3667,8.475,12.2333,15.0583,15.3834
	c13.5916,6.5416,28.8082,8.1,43.55,10.2c15.5333,1.825,31.0748,3.5917,46.7083,4.2917c4.9083,0.9583,9.9417,0.4667,14.9083,0.8167
	c7.225,0.7917,14.5167,0.45,21.775,0.6833c14.4166,0.1167,28.8333,0.125,43.25-0.1c8.65,0.05,17.25-0.9333,25.8999-0.9
	c7.5751-1.125,15.3-0.8417,22.8668-2.1c31.0333-2.4667,60.8583-12.5916,89.325-24.775c3.9667-1.4417,7.7083-3.7333,12-4.1167
	c-0.7916,4.4084-5.1417,6.55-8.0583,9.4417c-13.0084,10.1917-28.0416,17.5083-43.45,23.2917
	c-8.8251,3.0917-17.7834,5.9417-26.9584,7.7667c-15.8334,3.8916-32.1833,5.0082-48.3167,6.9417
	c-26.1167,2.575-52.2417,4.85-78.4333,6.4167c-4.0834,0.925-8.275,0.3667-12.3833,0.9833c-4.15,0.625-8.3833,0.0833-12.5084,0.8333
	c-3.85,0.7083-7.7749,0.2583-11.6333,0.7666c-5.2583,0.675-10.6,0.1584-15.8082,1.2083c-6.4418,0.1417-12.8334,0.85-19.2501,1.2083
	c-7.2833,0.9417-14.725,1.3833-21.7832,3.6167c-3.3334,0.9167-6.5668,2.3833-9.2001,4.6416c-2.7417,2.2-2.4584,6.2833-1.45,9.275
	c3.5333,6.0667,9.2833,10.45,14.9332,14.4333c13.9917,8.725,30.675,11.7083,46.8584,13.0833
	c5.725,1.0417,11.5916,0.3,17.3583,1.0001c3.8834,0.4666,7.775-0.0667,11.6583-0.2917c15.1084,0.0417,30.0834-1.8417,45.0667-3.5499
	c36.8083-5.4,73.8-12.9917,107.8251-28.5334c21.0583-10.3166,41.3916-22.075,61.6666-33.8333
	c0.9249-0.175,1.875-0.2416,2.8584-0.1833c-2.6334,5.2583-7.0334,9.2834-11.2001,13.3167
	c-13.7167,12.425-28.6,23.5167-44.125,33.575c-27.4583,17.625-57.0167,32.7333-88.825,40.6166
	c-13.6917,3.3584-27.6,5.6583-41.575,7.325c-3.8834,0.3167-7.8168,0.0084-11.6334,0.8833c-5.8167,0.575-11.6917,0.0751-17.5,0.7667
	c-7.5249,0.1833-15.0667,0.225-22.5667-0.4166c-8.3833,0.2083-16.6333-1.1667-24.9667-1.7667
	c-17.9584-2.2584-35.9-5.6167-52.9166-11.9583c-8.2001-3.1833-16.2833-7.0001-23.15-12.5751
	c-10.7833-8.8833-21.175-18.2416-32.2251-26.7917c-13.8749-10.9416-29.2583-20.55-46.4832-25.0916
	c-8.2168-2.1-16.7334-3.2083-25.2167-2.8334c-7.2833,0.6332-14.8083,3.5084-19.3501,9.4833c-3.9333,4.7-5.5834,10.825-6.15,16.8167
	c-0.85,16.25,5.9417,32.05,15.6333,44.8c5.9501,7.3083,12.8083,14.2583,21.5084,18.225c12.9916,6.4333,29.8167,4.8833,40.825-4.7667
	c2.6833-2.6583,5.4167-6.05,5.275-10.0333c-0.125-3.1333-2.7833-5.3666-5.35-6.7166c-10.1833-5.5-18.5167-14.1334-24.3417-24.0667
	c-0.1084-0.6333-0.325-1.8917-0.4333-2.525c3.7084,1.725,7.85,2.1417,11.6917,3.525c19.925,6.3666,40.1917,13.3583,57.1084,26
	c6.9,5.3834,13.9083,12.8333,13.375,22.25c0.7833,9.1833-2.7917,17.7833-5.5668,26.325c-1.9083,6.0084-3.5999,13.1-0.1,18.8667
	c3.5333,5.8915,10.0585,8.9417,16.2584,11.2416c17.525,5.925,36.3,7.125,54.6582,6.1083c36.6334-2.15,72.7917-9.65,108.0918-19.525
	c18.6416-5.3417,37.1333-11.3417,55.0667-18.75c15.8667-6.3083,30.8916-14.6584,44.6167-24.8167
	c10.1332-7.275,19.1749-15.8917,28.1-24.55c2.0499-1.8583,4.2333-3.625,6.6749-4.9584c2.0084-0.8083,4.25-0.4667,6.3834-0.5833
	c0.5249,4.3917-2.3501,7.9749-4.65,11.375c-9.1,12.45-20.1416,23.3333-31.5583,33.65c-23.2417,20.4999-49.225,38.3-77.9667,50.1416
	c-17.35,7.075-35.8333,10.5583-54.0333,14.625c-22.325,4.9584-44.9917,8.175-67.4166,12.6667
	c-7.5083,1.8-15.275,3.675-21.6917,8.1833c-3.4418,2.65-7.0084,6.175-7.1918,10.8c-0.4417,4.7667,2.6001,9.0417,6.05,12.0084
	c7.0667,5.8,16.2916,8.125,25.2416,8.8916c6.4167,0.6917,12.8251-0.325,19.2418-0.4999c24.7666-2.7084,49.4415-7.3583,73.1-15.35
	c7.6832-2.75,15.2832-5.9084,22.0582-10.5167c15.3917-9.7417,31.225-18.7584,46.9335-27.9667
	c19.9165-12.325,39.7916-24.725,59.7249-37.0333c2.5834-1.5417,4.9418-3.75,8.2084-3.65l-3.1-2.1334
	c1.35,0.6583,2.7167,1.2917,4.1749,1.775c-3.475,1.3167-5.3082,4.5833-7.7167,7.1666c-11.7166,13.75-24.6249,26.4167-37.6166,38.95
	c-13.4583,12.0083-27.4417,23.65-43.1833,32.5917c-28.975,16.475-59.4833,30.675-91.675,39.5667
	c-15.7333,3.9333-32.1499,7.3-48.375,4.6333c-4.8082-0.8417-9.35-2.8583-14.2583-3.0833c-3.2833-0.5417-6.6166-1.0917-9.8917-0.2667
	c-17.1499,1.0083-33.325,10.15-44.0667,23.3917c-4.0834,5.4999-7.8833,11.8917-7.5083,18.9916
	c0.125,16.275,8.3083,33.0583,22.7334,41.2667c9.1833,5.3834,19.9666,6.8083,30.4083,7.3083c17.075-0.5083,33.9166-4.2917,50.05-9.8
	c12.6582-4.025,25.0665-10.6583,33.1-21.55c9.8916-13.3666,12.2749-31.175,24.2916-43.1417
	c6.2167-6.7167,14.2583-11.4333,22.6333-14.9667c17.425-7.1166,35.3584-12.9166,53.475-17.9666
	c15.9166-4.2,31.9834-8.0917,48.3501-10.0833c3.0333-0.7167,6.1583-0.5583,9.2583-0.4333c-0.025,0.6583-0.0167,1.3167,0.0083,1.9916
	c-13.8167,6.725-28.1417,12.2917-42.1499,18.5667c-15.7917,6.9833-31.4418,14.3583-46.3834,23.0333
	c-6.8251,4.05-13.5667,8.3251-19.5499,13.5667c-4.3251,4.0834-9.1584,8.5-10.2001,14.6666c-0.5416,7.025-0.6,14.3834,2.4834,20.8917
	c4.0416,9.2834,12.4249,16.6833,22.3082,19.0583c8.6334,2.5,17.8917,1.275,26.3251-1.425
	c14.5249-4.8083,26.85-14.225,39.2666-22.8667c31.3-23.0333,60.5084-48.7584,89.0417-75.0917c-0.3501,3.1-2.1918,5.7167-3.4,8.525
	c-14.475,29.4417-32.8083,57.2584-56.0416,80.5417c-11.05,10.5167-23.125,20.1667-36.7917,27.1
	c-14.7999,7.7917-31.3667,11.2833-47.7333,13.9584c-21.8417,3.2333-43.8834,3.975-65.8501,5.825
	c-2.3916,0.9084-5,0.5417-7.4583,1.0417c-9.7334,1.525-19.8,3.5917-28,9.3666c-6.7916,4.6417-10.8168,12.6083-11.5084,20.7083
	c-0.6083,9.5167-0.1166,19.5501,4.4084,28.1584c3.95,7.9916,11.7083,13.5667,20.1167,16.1083
	c19.4666,5.0751,39.7083,0.4667,58.5833-4.9l0.525-0.45c16.6167-4.8584,32.525-12.0667,47.7167-20.3584
	c4.75-2.7167,9.4583-5.525,13.8583-8.7833c1.4417-1.1251,3.15-1.8334,4.9418-2.2501c-0.0668,3.4333-2.6752,5.925-4.425,8.6417
	c-9.65,12.4584-20.8584,23.6417-32.7167,34.0001c-12.9,11.2916-26.6333,21.7-41.425,30.3833
	c-14.6499,8.4999-30.3999,15.7333-47.2334,18.4083c-6.1499,1.2084-12.5332,0.75-18.6499,2.1334
	c-15.625,2.4083-30.65,10.3917-40.4083,22.975c-9.625,11.9167-14.4,27.325-14.5,42.5333c0.625,8.975,2.2333,18.4417,8.0249,25.6833
	c4.175,5.6084,11.4,8.1333,18.2168,8.0249c12.4833-0.0916,24.1832-6.3999,33.2416-14.6499c3.5167-3.5751,6.9418-7.5583,8.65-12.35
	c0.5-3.325,1.25-7.7584-1.9249-10.0083c-4.5834-3.2167-10.4834-3.4084-15.8751-3.1001c-7.7666,0.7333-14.5833,4.775-21.5083,8.0084
	c-1.9333,0.7666-4.575,2.1917-6.375,0.4332c-2.1083-1.8167-1.6499-5.0499-0.2666-7.1499c2.6499-4.3584,6.5833-7.775,10.525-10.925
	c8.3916-6.35,17.8833-11.2333,27.9166-14.3833c6.8833-2.075,14.1917-3.3751,21.3666-2.175
	c12.3584,2.3499,21.1334,13.2083,25.4751,24.4166c3.6583,8.3,3.8999,17.4834,3.4249,26.4
	c-1.7749,16.1333-10.2749,30.9584-21.7167,42.25c-4.1166,4.275-8.7,8.0667-13.475,11.575
	c-11.9833,8.65-22.9916,18.7334-32.0917,30.4c-10.0583,12.7834-18.2999,27.3083-22.1917,43.1918
	c-1.7833,6.8-2.2916,13.9417-1.4166,20.9249c1.0167,6.6583,4.45,13.4584,10.6167,16.7001c5.6832,2.6416,11.7416,4.4667,17.925,5.5
	c10.7832,2.2749,21.8666,1.2083,32.7916,1.7333c0.4916,0.2833,1.475,0.8417,1.9667,1.125c-0.05,1.2251-0.2334,2.525-1.3085,3.3168
	c-6.9249,6.1416-15.3916,10.1582-23.7,14.0582c-15.5083,6.7084-32.5083,11.75-49.5582,9.175
	c-16.55-0.2417-33.3002,9.1583-40.8251,24.0583c-2.6417,4.7166-2.7667,10.4166-1.7167,15.6
	c2.3916,5.975,8.0333,9.6416,12.9333,13.4249c14.8,10.4167,30.7833,18.9834,46.175,28.4751
	c5.7749,3.6666,11.7416,7.2083,16.6915,11.9916c1.3085,1.0834,1.3168,2.8083,1.5084,4.3833c-2.3167,0.9917-4.7666,1.8-7.3,1.775
	c-17.2833-1.2667-33.8417-6.85-50.3167-11.8999c-35.2916-11.5583-69.9667-24.9-105.0917-36.9501
	c-33.0667-10.475-62.4833-29.625-90.1666-50.0834c-19.5583-14.325-37.9917-30.1333-57.8417-44.0499
	c-12.525-7.5917-23.3251-17.5667-34.0499-27.4418c-10.1084-9.8916-20.3834-19.6082-30.2417-29.7499
	c-11.8833-11.95-23.7583-23.925-36.1333-35.3584c-9.4-8.6333-20.0917-16.7417-32.8584-19.3417
	c-5.475-0.3666-11.5166-1.1333-16.4332,1.8667c-6.6084,3.7333-10.6167,10.7-12.7583,17.7833
	c-0.9418,3.525-3.1583,6.9584-6.6583,8.3583c-6.725,1.6334-13.5084-0.8916-19.4917-3.8082
	c-7.9083-4.0667-15.2167-9.1917-22.1584-14.7167c-0.625-0.55-2.0833-1.1167-2.525-0.1417c-3.5583,7.8667-4.2,16.6334-3.8667,25.1583
	c-0.1917,8.9501,2.125,17.7084,4.9667,26.125c3.45,9.875,8.6833,18.9667,13.575,28.175c16.075,31.0667,32.1,62.2833,44.6417,94.9917
	c2.8416,7.5499,5.3916,15.2416,7.0333,23.1499c0.3999,4.2167,0.3167,8.4751,0.0166,12.7084
	c-3.5333,4.9584-7.4249,9.675-10.7666,14.775c-1.5,2.0166-1.0917,4.6166-1.0917,6.975c5.4584,5.475,13.6167,5.975,20.625,8.2251
	c7.9417,2.1082,15.9415,5.3833,21.6,11.5667c6.5167,7.2999,9.3917,17.1166,10.35,26.6749c0.35,7.5084,0.4333,15.1333-1.325,22.5
	c-3.2584,15.3417-9.9418,29.7083-17.5917,43.3167c-7.8584,13.3083-16.6167,26.2-27.2417,37.475
	c-7.4166,8.025-17.1666,13.8251-27.6917,16.7417c-3.0083,1-6.225,1.05-9.2333,2.025c-2.9667-6.3-4.5583-13.125-7.0583-19.6084
	c-3.6833-10.4916-7.325-21.0166-11.6417-31.2666c-2.7083-6.4667-6.5167-12.3667-9.7667-18.55
	c-8.6167-15.3083-15.5917-31.5916-20.175-48.5665c-2.4-8.5251-4-17.2501-6.2333-25.8252
	c-4.1083-16.7583-8.9333-33.3333-13.6917-49.9165c-4.3-15.6167-9.1-31.2584-10.3167-47.4751
	c-3.85-35.2166-7.6167-70.5833-15.5334-105.1833c-3.1417-11.9249-5.925-24.4-12.9833-34.7333
	c-10.0582-12.7083-17.1083-27.7667-20.55-43.5917c-0.5833-1.8583-0.7416-3.8167-0.8666-5.7334
	c-5.6334-5.2666-10.8583-11.0583-16.95-15.7749c-12.125-4.0334-24.7-6.6833-37.3333-8.4917
	c-5.575-0.2167-11.075-1.45-16.6667-1.0416c-6.2584,0.7166-12.8583,1.0834-18.4,4.3916c-6.2834,3.9751-9.6,11.1583-11.3,18.1584
	c-2.1334,7.0917-1.7584,14.575-1.825,21.8999c0.0916,6.6833,0.0583,13.4917,1.6917,20.0166
	c2.575,14.8917,8.0917,29.5583,17.7083,41.3751c10.2,12.8082,23.1334,23.5834,37.7667,30.975
	c0.0082,1.9166-0.3333,3.8334-1.3666,5.4917c-3.8751,0.5166-7.775,0.8667-11.675,1.1416c5.85,13.5834,15.1251,26.2,27.9417,33.9166
	c7.7416,4.9917,15.225,10.6583,20.9084,17.9917c-3.2584,4.975-7.6917,9.0751-11.0417,13.9833c-0.65,2.2917-0.1,4.7167-0.0833,7.0751
	c4.0165,1.8167,8.5667,1.375,12.7333,2.7084c9.2,1.9249,17.6417,7.3082,23.2501,14.8583
	c7.9666,10.375,11.325,23.4917,12.5083,36.3083c1.5417,16.7417-0.3333,33.5416-3.1083,50.0583
	c-2.1167,11.8667-4.95,23.625-8.8834,35.0333c-1.875,4.2666-3.5,8.8083-6.7667,12.2667
	c-21.275-23.4751-42.0083-47.8501-57.775-75.4751c-7.5084-12.85-15.2334-25.6-22.1167-38.7916
	c-6.3916-3.0917-12.9833-5.9-18.65-10.2667c-12.8667-9.0834-22.5084-23.2666-24.3334-39.0917
	c-0.2833-5.1666-1.2333-10.2583-1.6666-15.4166c-1.4584-9.0083-2.95-18.2916-7.45-26.3666
	c-1.1667-2.2833-3.2417-3.8917-4.6083-6.0084c-7.4417-35.5333-15.475-71-24.4333-106.2c-4.725-17.775-9.2333-35.7-16-52.8417
	c-3.0083-6.3834-5.4333-13.1334-5.8333-20.2417c-1.5334-24.3583,12.05-48.9833,33.2667-60.95
	c8.95-5.1917,19.4083-6.2917,29.4417-7.75c8.9333-0.6167,17.7917-1.8667,26.7667-1.8251c10.2584-0.9333,20.5834-0.575,30.875-0.825
	c7.9833-1.0166,16.0667-0.4083,24.0917-0.625c12.05-0.2499,24.1584,0.3584,36.1583-1.0083
	c8.2833-1.4917,16.7083-3.1333,24.4667-6.475c0.1501-2.5416-1.5334-4.5917-2.4833-6.8
	c-8.4084-18.0416-16.2167-36.3582-23.2667-54.975c-6.0667-16.9333-12.2667-34.0834-14.275-52.05
	c-1.0166-18.45,4.5917-36.45,11.0917-53.4916c7.6333-19.5,17.1833-38.1583,26.4417-56.9166
	c4.6-8.7333,8.2917-17.9333,11.1083-27.3834c6.3834-22.825,9.5334-46.4666,10.6833-70.0833c1.125-6.4583,0.2167-13.0667,1.075-19.55
	c0.2167-10.3083,0.1166-20.6332,0.05-30.9417c-0.9917-7.7166,0.025-15.5583-1.2167-23.2416
	c-0.6-21.4333-2.425-42.8083-5.9167-63.975c-3.2833-18-12.9-33.9417-22.1833-49.4083c-1.475,1.3167-2.6833,2.8833-3.8167,4.4917
	c-10.7252,14.15-23.4252,26.7667-37.5085,37.575c-10.525,8.2-22.2333,14.65-33.6917,21.4083c-13.1583,7.95-26.3917,15.95-38.0833,26
	c-11.5834,9.6167-20.8917,21.5583-29.7,33.6833c-4.625,5.8083-8.7167,12.175-14.3917,17.0417
	c-4.7417,4.1917-11.5917,4.025-17.425,2.8583c-7.1833-0.6083-14.35-1.9-21.1833-4.2417c-4.2084-1.425-7.6917,1.8083-11.5583,2.7833
	c-5.2,1.5-10.525,2.8917-15.9667,2.825c-9.775,0.2667-18.9167-3.7083-28.2917-5.8417c-1.525-0.6666-4.225-0.4-4.4917-2.55
	c-2.7333-16.2-5.2499-32.4333-7.8083-48.6667c-1.4083-11.3167-3.9417-22.5917-3.5833-34.0416
	c0.15-9.2083,2.5833-18.2,5.8167-26.7667c5.4333-14,13.525-26.7167,21.2917-39.5c25.1833-41.3917,51.1166-82.3417,75.55-124.1917
	c9.2833-15.8917,17.675-32.2833,27.0917-48.1084c11.9333-20.1,24.2083-40.1667,39.3917-58.025
	c5.4583-5.875,10.925-12.1167,18.1917-15.7917c11.4083-4.9417,23.5334-8.025,35.8333-9.6917c-0.05-0.45-0.1583-1.3583-0.2083-1.8167
	c-5.55-6.1083-14.0667-8.7833-22.1584-8.475c-9.425-0.4583-18.4666,2.5833-27.55,4.625c-6.225,1.375-12.25,3.55-18.4,5.1333
	c2.4417-5.1,7.4083-8.2333,11.475-11.925c9.7584-7.4917,20.6583-14.2667,32.9833-16.325
	c11.2584-1.0083,22.7333,0.7417,33.9001-1.3083c-2.9167-8.2917-10.0167-14.6-18.0668-17.7917
	c-9.3333-3.75-19.5916-3.05-29.3917-2.2667c-4.1667-0.2333-8.175,1.0583-12.3083,1.1833c0.0583-0.4583,0.1583-1.3583,0.2167-1.8083
	c1.7917-1.25,3.5917-2.5167,5.5833-3.4333c7.7917-3.6417,15.9584-6.525,24.3834-8.2917c4.775-1.2417,9.8167-1.3,14.6917-0.7417
	c5.1083,1.3417,10.2084,2.725,15.2917,4.1667c3.6833,0.8667,7.2,2.525,11.05,2.5833c-1.575-9.35-2.525-18.8-3.7416-28.2083
	c-0.7667-3.25-0.7751-6.5917-0.7917-9.9083c1.225,0.3083,2.4667,0.6167,3.6,1.2083c14.6084,7.2167,29.3,14.25,43.925,21.425
	C924.263,110.0833,925.963,109.8,927.4047,109.125 M964.7463,100.3417c-9.125,5.025-17.2667,11.5917-25.05,18.45
	c-9.225,8.75-18.0917,18.1583-24.0417,29.5c-0.075,0.45-0.225,1.35-0.3,1.8c-2.2,3.4167-1.5916,7.6667-1.4916,11.5167
	c0.9833,5,3.8833,9.4667,7.5167,12.9667c5.05,4.35,10.7666,8.3333,17.2583,10.0583c2.175-7.3667,4.5251-14.6833,6.6584-22.075
	c0.2-0.8667,0.525-1.6833,0.975-2.4583c0.1-0.85,0.2-1.7,0.3167-2.5417c2.4-4.0583,2.6917-9.0583,4.7166-13.2833
	c0.0667-0.4333,0.1917-1.3083,0.2584-1.75c0.3833-1.0917,0.8083-2.1667,1.3167-3.2083c2.525-7.8833,5.2167-15.725,8.2333-23.4333
	c0.6083-2.6917,2.35-4.9417,2.9417-7.6417c1.4167-3.0167,3.3666-5.7833,4.4333-8.9583
	C967.1964,99.5083,965.8547,99.6083,964.7463,100.3417 M887.9797,105.9c0.5667,4.7917,2.1083,9.4167,2.7416,14.2083
	c0.8333,1.8,0.8333,3.8333,1.2667,5.75c0.3917,3.2167,1.7167,6.2417,1.9167,9.4833c0.7417,0.8667,1.4916,1.7333,2.25,2.6
	c6.7083,0.675,12.3417-4.1167,17.3333-7.95c-0.4166-0.1583-1.25-0.4833-1.6666-0.6417
	c-7.3334-8.2917-15.5084-15.8417-22.8334-24.1333L887.9797,105.9 M883.363,191.4c-3.425,1.15-7.2584,0.8667-10.825,1.7083
	c-1.275,0.675-2.75,0.6667-4.1334,0.8667c-1.825,0.8417-3.9583,0.2833-5.7416,1.2333c-1.9501,0.5333-3.9333,0.9-5.9084,1.275
	c-2.0583,1.125-4.5833,0.875-6.575,2.1583c-0.425,0.075-1.275,0.2333-1.6917,0.3083c-0.8666,0.2917-1.725,0.5917-2.575,0.9
	c-0.8,0.3333-1.625,0.6167-2.4583,0.8417c-17.475,6.0917-32.9833,16.9417-45.8583,30.1167c-3.4917,3.3583-6.4,7.3083-8.5833,11.625
	c-0.6083,1.6667-0.8917,3.4167-1.1083,5.175c-3.2167,5.3667-5.7083,11.125-8.6667,16.6333
	c-8.5083,16.475-17.0167,32.9417-25.725,49.3083c-1.4583,2.6417-2.6583,5.45-4.4667,7.8917c-0.1166,0.4167-0.35,1.2584-0.4666,1.675
	c-12.5084,22.6083-24.6584,45.4583-37.8167,67.7c-10.8833,18.8833-22.7833,37.175-33.9333,55.9
	c-7.1666,11.8667-14.3416,23.775-20.0667,36.425c-3.0583,7.35-6.3833,15.2167-5.0416,23.35
	c0.2917,2.7417,1.9583,5.0667,2.3583,7.7834c1.4417,3.925,1.525,8.1583,2.4916,12.2083c0.7333,2.7834,0.1833,5.8167,1.2916,8.5
	c0.0917,4.2,1.175,8.3167,0.9667,12.5417c-0.15,2.8167,0.9917,5.5,0.8667,8.3333c-0.1583,5.925,0.9916,11.775,0.8667,17.7084
	c1.8416,0.2916,3.675,0.6833,5.4417,1.3083c2.0833,0.9667,4.4833,0.3751,6.6,1.2833c8.7167,0.7,17.8917,0.575,25.8167-3.5833
	c3.3917-1.5583,5.975-4.4166,9.4417-5.8083c7.225-3.5333,14.9667-6.7333,20.4167-12.8834c1.2-1.7583,0.5333-4.0334,0.6833-6.0084
	c-6.5583-0.05-13.35,0.9166-19.725-1.0167c-0.85-0.325-1.7083-0.5917-2.575-0.8167c-3.975-1.575-7.875-4.375-9.2-8.6083
	c-1.8333-4.2333-0.975-8.9583-0.0667-13.2917c1.4667-6.4999,4.5-12.8,9.3834-17.425c3.7916-3.6083,9.425-5.7083,14.575-4.0416
	c5.85,2.1,9.7417,7.3416,12.8167,12.4833c3.5083,5.45,6.7667,11.1667,8.7333,17.3583c0.0833,1.3667,0.1,2.725,0.1417,4.1083
	c4.425-0.8834,6.3333-5.4917,8.2667-9.05c0.0667-0.425,0.2-1.2833,0.2667-1.7083c0.3-0.8417,0.6084-1.6833,0.9084-2.5167
	c0.6-1.3,0.6917-2.7167,0.8833-4.1c0.3917-1.6917,0.6417-3.425,1.1166-5.0916c0.8-6.9083-0.9666-14.1834-5.4583-19.575
	c-4.8417-6.9-13.2917-11.0833-15.825-19.5333c-0.1667-2.5167-0.1417-5.0333-0.0167-7.5417
	c2.0417-6.175,6.9666-10.7917,12.7167-13.5499c0.4583-0.0583,1.3666-0.1667,1.8167-0.225c1.85-1.5,4.3083-1.4333,6.5417-1.775
	c4.9417-1.025,10.025-0.6417,15.0333-0.4667c3.4667,1.2,7.225,0.3667,10.8167,0.8833c6.825,1.2417,13.8917,0.4917,20.8167,0.6667
	c4.2-0.425,8.5333-0.775,12.4833-2.4c0.4333-0.0667,1.3083-0.2,1.7417-0.2667c4.9417-2.1916,9.8416-4.65,14.1166-8.0333
	c9.4333-7.675,17.3667-17.55,21.4583-29.1c1.25-1.675,1.0417-3.9583,2.2584-5.6333c0.0583-0.4417,0.1667-1.3167,0.225-1.75
	c0.4083-1.125,0.8416-2.2333,1.3-3.325c0.2416-1.3667,0.4667-2.7333,0.8167-4.0667c4.0084-15.95,3.85-32.4917,3.5-48.8333
	c-5.1,0.1667-10.2667-0.35-15.3083,0.6417c-9.4167,0.2333-18.85,0.1917-28.275,0.4c-0.2833-5.05,0.6332-10.1167,2.575-14.7667
	c2.5167-7.8167,6.7417-14.975,11.2667-21.7833c4.4166-6.0583,8.875-12.3833,15.2499-16.5417c1.8167-1.4,4.0417-2.075,5.925-3.3667
	c0.8-0.3333,1.6-0.6667,2.4167-0.9917c2.675-0.7333,5.325-1.575,8-2.3083c2.2584-0.6584,4.7584-0.025,6.9167-1.1083
	c3.6083-0.175,7.2416-0.2083,10.8583,0c4.5833,1.2667,9.5417,1.125,14.2083,2.3417c4.1833-1.6417,7.3083-5.2417,8.1334-9.7083
	c1.4667-5.1,2.225-10.4417,2.475-15.7416c1.0917-3.5333,1.175-7.35,2.8333-10.7083c1.0583-2.9917,3.9834-4.8333,6.8417-5.875
	c0.025-0.65,0.0583-1.2917,0.1-1.9333c-1.725-0.9917-3.5084-1.8833-5.3417-2.6583c-0.4417-0.0583-1.3416-0.1667-1.7833-0.225
	c-0.7667-0.4917-1.6-0.8083-2.4918-0.9583c-2.9833-1.1167-6.2333-1.55-9.0666-2.9833c-0.45-0.0583-1.3583-0.175-1.8083-0.225
	c-1.0833-0.4083-2.1417-0.8333-3.1833-1.3083c-1.1833-0.4-2.3499-0.8167-3.5-1.25c-2.9167-1.4333-6.05-2.775-8.1168-5.3917
	c-2.0916-2.2167-1.3582-5.5-1.1917-8.2417c2.3-9.45,7.4916-17.8167,12.5833-25.9833c1.7917-2.5833,3.2-5.5,5.625-7.575
	C891.1797,189.8667,887.1714,191.7,883.363,191.4 M1231.8297,200.6833c-12.5084,1.5083-24.8833,4.1583-36.8917,7.9667
	c-13.8833,4.6333-27.6917,10.9-38.275,21.2667c-7.7916,7.2917-13.5668,16.9667-15.3167,27.5583
	c-1.3751,6.0083-0.9834,12.2583-0.5834,18.3583c0.95,2.9167,0.9,6.075,2.0416,8.9583c7.9668,28,39.1417,48.15,67.9084,41.2083
	c11.4333-2.7834,20.9-11.725,25.0416-22.6584c3.125-6.475,4.0333-13.8333,2.8833-20.9
	c-1.8082-6.2917-7.1499-10.9083-13.0499-13.3167c-6.6-2.9583-13.8833-3.6667-20.9917-4.275
	c-4.625,4.1583-9.3334,8.2667-14.325,11.9833c-0.2251-3.7917,2.225-6.85,3.8667-10.05c4.2083-7.2417,10.375-14.1333,18.7666-16.2917
	c5.35-0.4917,10.9917-0.8,16.1084,1.175c13.9999,5.7417,26.8082,14.6,36.775,26.0167c1.875,1.9583,3.1333,4.575,5.6499,5.8417
	c-0.4332-9.4,1.5667-19.125,7.0167-26.9333c6.5-9.5,17.1-15.275,27.9749-18.325c19.4585-4.4083,39.1251-7.825,58.7418-11.5
	c-40.0333-8.8-79.9668-17.975-119.9668-26.9333C1240.7213,198.9083,1236.3047,200.5916,1231.8297,200.6833 M972.863,220.275
	c5.8334,8.5667,13.5,15.6083,20.2334,23.425c20.65,21.8833,41.0333,44.0083,60.6916,66.7833
	c33.8501,39.7,66.4166,81.2166,89.6667,128.175c1.0333,2.2666,2.0333,4.5583,3.3583,6.6917
	c3.6333,7.5667,7.425,15.075,11.2167,22.5667c0.5834,1.325,1.0084,2.7834,2.0834,3.8333c5.4417,12.0917,11.7334,23.8083,17.3,35.85
	c12.1917,24.9833,24.0416,50.1583,35.2999,75.5666c1.2833,1.45,3.475,1.1,5.175,1.7584c2.35,0.8167,4.9166,0.9417,7.1917,2.0083
	c4.4667,0.9166,8.9333,2.0417,13.2999,3.3583c2.2583,0.475,4.6001,0.7167,6.7584,1.6334c3.1583,0.25,5.9833,1.8834,9.1499,2.15
	c2.4584,0.75,4.9917,1.25,7.475,1.95c4.425,1.2084,8.9167,2.1833,13.3417,3.425c0.4333,0.0833,1.3,0.2416,1.7417,0.325
	c3.925,1.2667,7.975,2.25,12.0333,3.1417c0.2501,0.25,0.7584,0.7501,1.0083,1.0084c-0.1917-1.6917-0.4833-3.375-1.4249-4.8167
	c-13.75-30.9667-29.25-61.1417-45.6417-90.8c-2.9916-4.9083-5.5583-10.0916-8.575-14.9667
	c-34.5834-59.725-74.2417-116.9917-122.2667-166.7584c-6.3667-7.2417-13.4249-13.8417-20.1666-20.7167
	c-6.0084-6.2333-12.7084-11.7166-18.7667-17.8917c-17.1583-15.6-34.9583-30.5916-54.1333-43.6833
	c-12.8834-8.85-26.3833-16.95-40.95-22.7167C976.3297,220.8916,974.588,220.5833,972.863,220.275 M970.4213,244.15
	c0.2834,10.875,0.7167,21.825-0.9166,32.6167c-1.0084,2.9417-0.775,6.1584-1.675,9.15c-1.0916,3.2417-1.5916,6.675-2.5833,9.9666
	c-0.8251,1.85-1.4083,3.7834-2,5.7166c-1.675,4.85-3.8333,9.5167-5.8583,14.225c-4.8083,14.7333-3.3834,31.1833,3.3417,45.1
	c2.775,5.7833,6.4167,11.2167,11.4417,15.2917c0.3916,0.0083,1.1833,0.0417,1.575,0.05c0.1501-1.2667,0.3333-2.525,0.7583-3.725
	c0.125-1.6833,0.1333-3.3583,0.0084-5.0333c-0.3917-0.825-0.5834-1.6917-0.5667-2.5917c0.0417-7.4333-0.225-14.8833,0.05-22.3083
	c0.8416-3.625,0.725-7.3917,1.8083-10.9583c0.3167-0.8333,0.575-1.6833,0.7917-2.55c1.15-3.4917,3.1166-6.8416,6.2333-8.925
	c2.5583-2,6.0583-1.6167,9.1-1.3917c4.375,0.8333,7.4916,4.4666,9.8,8.0333c3.8417,6.3167,6.1083,13.5,7.3417,20.7667
	c1.125,2.5916,0.3083,5.5583,1.225,8.2333c0.1917,8.0167,0.7833,16.325-1.2584,24.1083c-0.5167,4.0334-1.6666,7.975-3.2917,11.6917
	c-2.1833,7.1-8.3333,12.0083-10.6666,19.0167c-0.7833,3.9333-0.775,8.0833-0.0084,12.025c2.55,6.9417,8.4,11.8583,14.2167,16.075
	c0.775,0.075,2.325,0.225,3.1,0.3c-2.7166-9.2333,0.0917-21.0167,9.2917-25.4917c4.1-2.5,9.3083-1.4583,13.0917,1.15
	c8.2917,5.7667,14.1333,14.325,18.7084,23.1917c4.2833,8.9333,7.4249,18.8167,6.0667,28.8416
	c-0.8916,2.275-1.4333,4.7166-3.1583,6.575c-0.0583,0.475-0.1666,1.4167-0.225,1.8917c-0.45,0.1-1.3417,0.3-1.7833,0.4083
	c-2.775,2.5417-6.4333,3.8333-10.1333,4.2166c-3.4166,1.0583-7.125,0.6-10.5751-0.1083c-4.1833-0.0167-7.8833-2.1166-11.95-2.8
	c-8.5583-2.7834-16.8083-6.4083-24.8749-10.3833c-7.5167-3.9-15.0167-7.8167-22.4084-11.925
	c-0.8167-0.0417-2.4583-0.125-3.2833-0.1583c0.1583,2.1,0.05,4.35,1.125,6.2667c3.9083,8.025,10.05,14.625,15.8083,21.3416
	c7.4333,7.8416,15.2084,15.35,23.4084,22.375c15.3333,12.3417,33.1832,21.0167,50.9833,29.1667c1.1749,0.475,2.3417,1,3.475,1.6
	c3.6666,1.5083,7.2833,3.1583,10.9667,4.65c1.575,0.7667,3.25,1.3333,4.8833,2.0083c2.5499,0.925,4.9833,2.15,7.575,2.9833
	c12.0667,4.8,24.2833,9.3083,36.6334,13.35c6.0249,2.1415,12.15,4.025,18.2583,5.95c1.2916,0.4166,2.6416,0.6417,4.0083,0.8
	c-0.4-5.6833-2.7417-10.9916-3.7833-16.5583c-1.15-2.425-1.4667-5.1251-2.5-7.5917c-3.7583-12.6-8.25-24.95-12.925-37.2417
	c-0.5499-1.4083-1.0249-2.8416-1.6583-4.2c-0.4583-1.1833-0.8583-2.3667-1.2416-3.55c-0.8501-1.55-1.25-3.2833-2.0834-4.8333
	c-0.425-1.1667-0.8334-2.3333-1.2417-3.4833c-3.1-6.8167-5.4833-13.9333-8.7666-20.6583
	c-11.225-26.7917-23.725-53.1334-38.4083-78.2167c-12.7666-22.4167-26.8417-44.0833-41.3833-65.4
	c-17.1251-24.475-34.7001-48.7333-54.5417-71.0917C976.6547,249.4667,974.4297,245.4583,970.4213,244.15 M1280.988,345.2333
	c-4.2001,0.1917-8.3584,0.8-12.525,1.275c-2.9584,1.025-6.175,0.9083-9.15,1.8917c-11.2416,2.675-22.9584,6.9583-30.4917,16.1917
	c-5.575,6.7834-6.5082,16.1584-5.2666,24.575c1.3833,8.8083,5.9167,16.9666,12.2999,23.1333
	c7.8083,7.275,17.8667,12.0417,28.3917,13.7166c8.3667,0.8,17.175,0.7584,24.9417-2.9083c9-3.8416,15.8916-11.8416,19.125-20.9917
	c1.15-4.5833,1.3667-10.2083-2.3333-13.7416c-5.6667-5.6833-14.0417-7.3583-21.7334-8.2c-3.275-0.875-6.6833-0.5333-10.0166-0.55
	c-4.6417,3.1417-9.3917,6.1-14.1584,9.0333c-0.4-0.0083-1.2083-0.0333-1.6166-0.0417c1.375-0.375,2.225-1.2417,2.2-2.725
	c3.1583-5.1,7.1-9.825,12.1416-13.1584c6.425-4.4917,14.6084-5.8583,22.2501-4.5083c13.5249,3.0833,26.5916,9.8833,35.4333,20.775
	c2.0082,2.4,3.2749,5.3167,5.3333,7.6833c1.7916-2.9083,4.1084-5.4666,6.6583-7.7333c11.2251-10.175,25.675-15.95,40.1918-19.625
	c15.8749-3.7667,32.6499-4.7083,47.5499-11.875c2.8999-1.6333,6.6499-3.9333,6.2084-7.7833
	c-4.3334-0.225-8.6667-0.0667-12.9751-0.3667c-8.2999-0.9083-16.7166,0.0833-24.975-1.1584c-6.4167-0.2-12.8334-0.2-19.2416-0.3667
	c-10.2251-0.9-20.525-0.4833-30.775-0.9167c-6.0668-1.075-12.2667-0.2-18.3334-1.2667c-4.2084,0.1833-8.2833-1.025-12.4833-0.9583
	c-10.2751-0.2583-20.5585-0.275-30.8334,0C1284.8463,344.7,1282.838,344.5083,1280.988,345.2333 M953.1047,501.1583
	c-0.2583,8.2417-0.1917,16.4917,0.1333,24.725c1.1584,6.8083,0.0751,13.7916,1.25,20.5917c0.3167,2.2666,0.2084,4.5583,0.25,6.8417
	c1.175,11.6417,0.6,23.3917,0.9333,35.0833c1.0417,7.4918,0.5083,15.1083,0.5,22.6417l-1.05,0.6583
	c1.9333,0.5084,0.9667,2.8,1.0333,4.1833c-0.1167,0.4083-0.3666,1.2167-0.4833,1.6251c-0.1833,6.9583-0.1082,13.925-0.4083,20.8834
	c-0.8666,3.5416-0.3583,7.2166-0.775,10.8167c-1.1667,3.4583-0.4083,7.1917-0.8749,10.7667c-0.775,1.9-0.6334,3.9667-0.7917,5.975
	c-1.4916,6.7917-1.9167,13.9417-3.7667,20.675c-0.3333,2-0.6832,4-1.25,5.9584c-1.3916,3.8-2.0916,7.8666-3.7333,11.5833
	c-1.8167,6.6667-5.8834,12.4167-8.8083,18.5499c-12.5917,22.95-25.8167,45.6334-36.225,69.7
	c-0.475,1.4083-0.8917,2.8666-1.6833,4.15c-0.5,1.45-0.85,2.9833-1.7333,4.2749c-0.075,0.425-0.2166,1.275-0.2916,1.7
	c-0.4,1.075-0.825,2.15-1.2917,3.2166c-2.0583,6.6-3.5583,13.3334-5.05,20.0583c-0.4417,8.3083-2.875,16.6334-1.125,24.9584
	c0.0833,5.0916,1.025,10.125,2.1334,15.0916c0.4583,1.65,0.425,3.425,1.1833,5c0.0917,0.425,0.2667,1.2667,0.3583,1.6833
	c0.45,1.0583,0.6583,2.2,0.8583,3.35c0.7917,1.5916,1.1084,3.3666,1.6083,5.0833c0.55,1.0167,0.9,2.1083,1.2084,3.2417
	c0.2416,0.8167,0.5333,1.6166,0.8917,2.4083c0.8417,2.6083,1.9667,5.1167,2.9333,7.6917c0.775,1.5583,1.275,3.2417,2.1166,4.7833
	c5.6667,14.275,13.9916,27.5583,17.4167,42.6583c1.875,6.8501,4.4417,13.4834,7.15,20.05c0.6751,1.3167,1.175,2.725,1.6667,4.1417
	c4.2499,9.725,8.6417,19.4,13.3917,28.8917c2.7167-0.1751,5.3-1.0667,7.7833-2.1167c1.0417-0.4584,2.175-0.6,3.2917-0.7584
	c2.0083-1.15,4.4417-1.0666,6.4583-2.1833c1.6917-0.525,3.4167-0.95,5.0751-1.575c0.8333-0.3249,1.675-0.625,2.525-0.9083
	c0.4417-0.0833,1.3167-0.2333,1.7583-0.3083c0.7333-0.525,1.55-0.8417,2.4583-0.9584c3.0334-0.9583,6.1-1.8083,9.1083-2.8333
	c0.8334-0.3084,1.675-0.6001,2.5333-0.8667c0.4333-0.0833,1.2917-0.2584,1.725-0.3417c0.7666-0.4501,1.5833-0.7667,2.4667-0.95
	c10.3583-3.0417,20.6166-6.45,30.9833-9.4917c6.225-2.1583,12.7333-3.4666,18.8583-5.8583c4.1333-0.6333,8.0499-2.2,11.8916-3.7917
	c3.625-1.5583,6.6667-4.2167,8.6499-7.6334c0.2084-3.1166,0.2584-6.2416-0.0499-9.3333c-0.875-1.5416-1.3-3.2584-1.7833-4.9167
	c-2.25-4.8917-4.8251-9.625-7.675-14.1833c-3.4833-5.9999-8.2334-11.4249-10.0834-18.2416c-0.625-1.75,0.05-3.5333,0.5918-5.1833
	c0.825-0.625,1.6416-1.2583,2.4667-1.8833c5.5667-0.775,11.0667,0.6417,16.075,3.0167c8.45,4.025,16.3833,9.825,21.4916,17.8
	c2.6333,3.9167,3.1333,9.0667,6.925,12.2167c0.575,0.0334,1.1583,0.075,1.75,0.1417c1.2583-1.6168,2.4249-3.2001,2.7083-5.3167
	c0.3917-5.8417,0.4167-11.7334-0.0416-17.5667c-1-2.0999-0.1416-4.5833-1.2333-6.6417c-0.8833-2.4167-0.7917-5.0583-1.675-7.4583
	c-5.3999-21.9501-17.2583-41.4417-28.2583-60.9417c-7.7084-13.4834-15.4583-26.9666-24.25-39.775
	c1.3083,0.1833,2.6251,0.5083,3.7167,1.325c23.2833,14.5417,45.3417,31.7417,62.4834,53.3417
	c9.6416,12.175,16.4166,26.275,22.8916,40.3c1.9501,4.3083,3.6417,8.7416,5.4166,13.1334c1.9,5.225,3.4167,10.575,5.0417,15.8832
	c0.0916,0.4417,0.275,1.3168,0.3583,1.7584c0.8667,2.7,0.7666,5.6,1.5167,8.3499c-3.3584,6.475-9.1085,11.175-14.2668,16.15
	c-14.65,12.425-31.2666,22.4-48.775,30.2333c-1.3167,0.7167-2.725,1.2083-4.1333,1.675c-2.9333,1.4333-6,2.525-9.025,3.7333
	c-2.0251,0.6334-4.0167,1.35-5.9834,2.1334c-2.9834,1.0333-6.1,1.675-9.0083,2.8833c-9.9,2.4916-19.8668,5.3167-30.0917,6.1833
	c-4.35,1.1417-9.05,1.25-13.3333,2.9167c-1.1417,0.1416-2.3,0.275-3.3083,0.8749c-1.6917,0.4417-3.4,0.8-5.0833,1.2333
	c-30.275,9.3167-59.5583,25.225-79.9167,50.0167c-2.9333,3.0917-4.2917,7.1749-6.0667,10.9667
	c-1.85,4.1166-3.325,8.3999-5.125,12.525c-0.0583,0.45-0.1833,1.3417-0.2416,1.7833c-0.4,1.0667-0.7917,2.175-1.3333,3.2084
	c-0.525,1.9583-0.875,3.9833-1.6251,5.8916c-0.7166,4.7084-2.175,9.4083-1.7416,14.2167c1.0583,2.0667,0.75,4.6,2.1583,6.525
	c2.775,4.4,7.6583,6.7,11.1833,10.3833c4.65,4.4417,7.275,10.45,9.6083,16.3251c0.5,1.6833,1.0833,3.3333,1.6833,5.0083
	c0.3834,1.9999,1,3.95,1.625,5.8999c0.1167,2.875,1.7583,5.3917,1.8917,8.2667c1.7334,9.1917,3.8834,18.3251,5.2584,27.6
	c1.0167,2.9417,1.3333,6.0834,1.6417,9.175c0.6833,1.575,0.7083,3.325,1.225,4.9833c0.1416,1.3916,0.2416,2.7833,0.4,4.2084
	c1.4083,4.2833,1.4167,8.9417,2.625,13.325c1.3917,8.5917,2.8583,17.225,4.4833,25.7667
	c0.7167,5.9083,2.2084,11.6749,2.9083,17.5833c1.3417,3.4001,0.8167,7.2917,2.1084,10.7334c0.3916,2.525,0.7751,5.0667,1.275,7.5833
	c0.9166,2.6918,1.0333,5.5834,1.625,8.3667c0.7083,1.2584,0.6417,2.7167,0.8583,4.1333c0.7417,1.8418,0.4667,3.8917,1.2,5.7667
	c0.2583,1.1001,0.5167,2.2167,0.8083,3.35c0.1583,1.3834,0.25,2.8334,0.8666,4.1333c1.2333,5.7334,2.85,11.8085,7.2167,16.025
	c3.3583,3.3584,6.975,6.7334,8.6417,11.3251c0.2,0.9,0.5,1.7833,0.8917,2.6583c0.1,0.4166,0.3166,1.2416,0.4249,1.6583
	c0.5333,1.3583,0.5667,2.8167,0.725,4.275c1.1333,2,0.5168,4.4083,0.9,6.6167c0.8583,2.0917,0.425,4.4082,0.5417,6.6249
	c0.1167,4.4667-0.025,8.9501,0.275,13.4167c1.1083,4.8749,0.225,9.9166,1.0583,14.825c0.475,2.5084,0.3167,5.075,0.4583,7.6334
	c0.625,4.3999,1.5083,8.7749,1.825,13.225c1.7,7.1583,2.8167,14.6749,6.7,21.1c1.0084,1.0166,2.0001,2.15,3.3666,2.7583
	c2.9834,0.4917,5.9833-0.4667,8.775-1.4667c2.5167-1.45,5.5167-0.8417,8.2834-0.9332c0.8749,0.8333,1.7583,1.6666,2.65,2.5166
	c0.2416,4.2333,0.2,8.6749-1.525,12.625c-0.2167,1.1333-0.4,2.3083-0.725,3.45c-0.4333,8.125,1.025,16.2583,2.85,24.1583
	c0.6667,2.1917,0.85,4.525,1.6417,6.7084c0.6666,1.9167,0.8583,3.9667,1.7667,5.825c0.0916,0.4167,0.275,1.2667,0.3666,1.6833
	c0.4083,1.3667,0.7833,2.7251,1.2167,4.1167c0.2667,0.8167,0.5417,1.6499,0.825,2.5c0.325,1.45,0.75,2.8999,1.3167,4.3083
	c0.7166,1.8833,1.075,3.9,1.9916,5.7333c0.5167,2.4917,1.8,4.7583,2.2167,7.3c4.6083-2.1167,8.725-5.1917,12.7666-8.2167
	c18.9501-14.3501,33.775-34.2,41.7167-56.625c0.2667-0.8334,0.5583-1.65,0.875-2.4417c4.2668-14.3583,5.5417-30.1083,0.0667-44.3251
	c-2.7-6.6416-6.1749-13.3583-11.85-17.9333c-7.7999,3.8168-16.1249,6.5583-24.1416,9.925
	c-4.6917,2.0834-9.625,3.5834-14.2083,5.9083c-2.3833,0.2084-4.775,0.1667-7.1583,0.05c-3.1583-1.8417-4.8834-5.0917-5.6583-8.55
	c-0.5-5.2666,1.075-10.5166,3.625-15.075c3.2416-5.7417,8.5499-9.8083,12.8333-14.6917c1.3584-1.475,2.55-3.9834,0.875-5.6667
	c-3.45-3.575-8.2167-5.7417-12.9583-7.0083c-10.6-3.575-21.95-2.15-32.9417-2.2999c0-2.9084-0.0416-5.8251,0.2834-8.7084
	c0.2916-0.925,0.5667-1.8417,0.8417-2.75c1.7917-3.6084,4.7333-6.575,8.3833-8.3c3.8583-1.3916,8.2167-0.2916,11.8666-2.375
	c6.7917-3.4999,10.7667-10.5083,13.5417-17.3416c0.7583-2.2084,0.7083-4.6334,1.7167-6.7334c0.35-3.9,0.3416-7.8251,0.05-11.7167
	c-0.875-1.5417-0.95-3.3583-1.5667-4.9751c-1.25-3.0916-3.4584-5.6665-5.925-7.8499c-4.7584-4.3168-8.15-9.8501-11.4667-15.2751
	c-8.7833-14.3165-15.6667-29.6917-24.575-43.9332c-0.825-0.1167-1.6334-0.2167-2.4417-0.3c-0.275,4.775,0.7667,9.4084,1.2416,14.125
	c0.6917,1.5583,0.5,3.2667,0.5583,4.9333c1.025,7.2001,1.6334,14.4584,1.8917,21.7417c0.1417,0.3833,0.4083,1.1499,0.55,1.5333
	c0.0917,5.0249,0.175,10.0667-0.0417,15.1c-0.5917,1.2-0.7166,2.5416-0.8167,3.8833c-0.9833-0.075-1.95-0.1416-2.9166-0.1917
	c-0.6583-2.525-2.3167-4.6416-2.9167-7.1833c-0.4833-1.0416-0.925-2.1083-1.35-3.1416c-0.0667-0.45-0.2-1.3334-0.275-1.775
	c-2.55-6.7583-4.1-13.875-6.3-20.7666c-0.15-1.1417-0.3667-2.275-0.8417-3.3c-1.0167-4.2-2.1166-8.3833-3.3334-12.5083
	c-0.7416-3.1001-1.325-6.25-2.525-9.2001c-0.1083-0.8833-0.2-1.7416-0.3-2.5916c-0.8-1.2334-0.8917-2.7501-1.2916-4.1001
	c-1.9167-8.3334-3.85-16.6833-5.8834-24.975c-1.475-7.5417-3.65-14.9417-4.5833-22.5668
	c-1.9083-6.4666-2.2416-13.4583-3.8167-19.9666c-0.45-8.3417-2.0334-16.8334-0.0917-25.1167c1.75-3.3666,5.7417-4.025,8.825-5.6333
	c7.125-3.0583,14.1083-7.475,18.1417-14.3083c1.1667-1.725,1.0333-3.925,1.975-5.7333c0.0583-1.175,0.0916-2.3334,0.0916-3.4834
	c-1.2833-3.1333-1.5083-6.6083-2.475-9.85c-1.4833-7.6167,3.5334-14.3334,8.8251-19.175
	c5.0583-4.5083,10.725-8.3833,16.7416-11.4917c5.0833-2.6,10.225-5.1333,15.6167-7.0416c1.1417-0.475,2.325-0.8917,3.5166-1.2583
	c1.0333-0.4667,2.1-0.875,3.1833-1.2333c1.4916-0.2751,2.9583-0.7001,4.375-1.2834c3.7667-1.2667,7.8-1.6166,11.5417-2.8749
	c3.0834-0.725,6.2084-1.0333,9.375-1.15c2.9083-0.7917,5.9249-0.675,8.925-0.675c8.7333,0.0833,17.2583-2.0667,25.9332-2.725
	c3.9417-1.4667,8.3917-0.8582,12.3833-2.1082c2.525-0.4501,5.0417-0.9417,7.5834-1.275c4.6084-1.3,9.5416-1.3583,14.1333-2.8917
	c1.3583-0.15,2.7251-0.2834,4.1-0.425c2.9-1.3,6.2084-1.0084,9.175-2.0917c5.0917-0.725,10.025-2.225,15.1333-2.8668
	c0.9166-0.7999,2.1583-0.7,3.2833-0.9333c1.8584-0.675,3.9-0.4417,5.75-1.175c2.4584-0.7083,5.0583-0.8499,7.5-1.6667
	c3.9584-0.6833,7.7917-2.0416,11.7834-2.5249c4.5416,2.6249,8.7583,5.8666,13.1917,8.7166c4.4417,3.2167,9.3083,5.8584,13.5,9.4167
	c3.4333,0.6833,6.4917-1.2001,9.275-2.9333c14.0499-6.7084,26.8167-16.0084,38.0833-26.7167
	c12.9751-12.9417,21.65-29.2833,30.3167-45.2333c8.1001-15.4249,15.3334-31.2833,22.425-47.1833
	c0.6167-1.8583,1.4834-3.6166,2.125-5.4666c0.325-0.0584,0.9667-0.1833,1.2916-0.2417c0.4333,1.3251,0.925,2.6584,1.6001,3.9167
	c0.7916,3.5582,1.7916,7.0833,2.4,10.6916c0.3666,2.0001-0.0334,4.1417,0.9249,6.025c0.5,9.05,0.375,18.1333,0.1167,27.2
	c-0.7917,3.3834-0.85,6.8416-0.9667,10.3c-0.7916,4.4666-1.7583,8.9-2.5667,13.3667c-1.0416,4.1083-1.65,8.3333-2.7916,12.4332
	c-0.6667,2.1751-1.0668,4.4167-1.7168,6.6c-1.3916,5.1-3.2333,10.0667-4.6582,15.1584c-0.9418,2.1833-1.7251,4.4333-2.4418,6.7083
	c-0.8417,1.5416-1.25,3.275-2.0583,4.8417c-4.2916,10.7583-10.1832,20.8832-17.35,29.9833
	c-10.1416,12.5667-22.7583,23.05-36.4167,31.5667c0.0668,0.9166,0.15,1.8417,0.25,2.7833c0.5083,0.25,1.5084,0.7417,2.0167,0.9917
	c5.5918,2.225,11.7833,2.0166,17.4917,3.375c1.7,0.15,3.4167,0.25,5.1333,0.35c2.0583,0.525,4.1251,1.0333,6.175,1.65
	c0.0083,0.65,0.0333,1.3082,0.0667,1.9833c-1.225,0.8501-2.5083,1.6333-3.875,2.2167c-5.7,2.4333-11.7333,3.9417-17.6166,5.8167
	c-5.1835,1.1334-10.4084,2.2583-15.7251,2.4084c-8.0751,2.6416-16.775,0.4916-24.9417,2.1499
	c-24.6666,0.5583-49.3501-0.0083-74.025,0.2584c-5.0917-0.1667-10.0917,0.9249-15.1833,0.7832
	c-5.5583,1.0333-11.975,1.1084-16.1416,5.5084c-0.0417,0.4667-0.1167,1.4-0.1583,1.8666
	c6.8333,5.9751,13.125,12.525,19.7333,18.7417c6.0333,5.0751,11.2667,11.025,17.3334,16.0751
	c8.0416,7.7999,16.4417,15.2167,24.6666,22.8333c24.9417,22.5167,50.125,44.8251,76.4916,65.7084
	c24.55,19.0583,48.6333,39.6084,77.4167,52.0917c7.6499,4.8583,15.6,9.2333,23.9249,12.8417
	c2.2416,0.7417,4.4584,1.6166,6.775,2.1666c0.8417,0.2167,1.6917,0.4501,2.5499,0.725c1.5,0.925,3.275,1.2834,4.8501,2.1333
	c1.4249,0.4001,2.8833,0.775,4.3165,1.2418c1.2834,0.5332,2.6752,0.6832,4.0583,0.8833c1.6501,0.4999,3.4252,0.4999,5.025,1.2166
	c7.7417,0.4834,15.5751,1.775,23.3083,0.3917c2.2167-0.375,4.5751,0.125,6.6917-0.8167c3.7584-0.5167,7.4083-1.6083,10.9751-2.9083
	c1.5166-0.9083,4.2416-0.6416,3.9082-3.1334c-1.3583-0.3833-2.6832-0.7916-4.0166-1.1416c-0.8082-0.4083-1.6-0.8083-2.3833-1.1917
	c-23.4584-8.3334-43.6416-26.9083-51.9917-50.5917c-0.625-1.65-0.95-3.4-1.6833-4.9834c-0.55-1.9667-0.8916-3.9667-1.2583-5.9583
	c-1.85-6.4583-1.3417-13.2833-1.3667-19.9333c1.2833-16.9417,8.7417-33.3584,20.8334-45.3334
	c8.3667-6.9166,14.6749-16.275,18.5249-26.3917c0.4001-0.825,0.6835-1.6832,0.8501-2.5665
	c1.1167-1.7334,1.5667-3.7584,2.0167-5.7251c0.0916-0.4333,0.2749-1.2833,0.3666-1.7084c1.3583-2.5665,0.9584-5.6332,2.1667-8.2499
	c0.1333-3.375,1.1666-6.6417,1.0833-10.0167c0.0583-1.3833-0.2-2.8916,0.675-4.0667c0.3-8.3917,0.3167-16.8083-0.0917-25.1917
	c-1.2833-5.1083-0.5834-10.6666-2.0833-15.7583c-0.7751-7.05-2.5918-13.9166-4.175-20.8083
	c-0.1417-0.8667-0.2834-1.7084-0.4166-2.5333c-0.6084-1.3167-0.8917-2.7417-1.2001-4.1167
	c-0.4917-1.9833-1.0333-3.9583-1.7833-5.8417c-0.05-0.45-0.1583-1.35-0.2084-1.7999c-1.4083-1.8834-1.1-4.4417-2.2583-6.4417
	c-0.575-1.6666-0.9916-3.375-1.6583-4.9833c-0.425-1.2084-0.825-2.4-1.2333-3.5751c-5.7751-15.45-12.8251-30.4667-21.6583-44.425
	c-2.6084-4.05-4.2084-8.6333-6.25-12.9249c-1.0918-5.2501-2.5585-10.6334-0.8584-15.9335c2.2666-9.2166,11.05-14.4666,19.3333-17.6
	c3.0668-0.7416,6.0751-1.7667,9.2168-2.1666c5.0499-1.3833,10.3666-1.5083,15.5833-1.45c0.375-3.675-1.7083-6.8166-2.8666-10.1416
	c-1.7667-3.8667-3.1084-7.925-5.2667-11.6c-9.5-21.175-21.9501-41.2416-37.975-58.1166
	c-16.8834-16.7083-35.6584-31.4501-51.7917-48.9417c-10.3916-11.7167-20.0833-24.675-24.575-39.8917
	c-2.2334-8.1083-3.8167-16.8-1.7167-25.1083c1.5583-5.8917,6.5583-10.7333,12.5333-12.0167c7.775-1.8334,15.8834-0.6,23.5583,1.1667
	c0.85,0.225,1.7167,0.4667,2.5833,0.7333c13.6667,3.6333,26.4167,9.8499,39.15,15.875c-0.625-0.4667-1.2333-0.925-1.8333-1.3667
	c-14.8251-16.3667-28.75-33.525-42.8667-50.5083c-11.0667-11.175-24.4501-19.7333-37.9584-27.6333
	c-13.4166-7.8834-27.4584-14.6-41.4249-21.4084c-7.3251-3.1333-14.4917-6.6833-21.9167-9.5833
	c-1.5333-0.8583-3.2333-1.3167-4.7999-2.0583c-9.6084-4.1917-19.4501-7.8417-29.175-11.7
	c-3.0333-1.1583-6.1666-2.0916-9.1333-3.3583c-1.4667-0.4583-2.9501-0.875-4.2917-1.6c-0.8583-0.2667-1.7083-0.5167-2.5499-0.7417
	c-0.8667-0.2416-1.675-0.6-2.4084-1.075c-0.45-0.0583-1.3333-0.1584-1.7833-0.2167c-3.4166-1.6833-7.125-2.6667-10.75-3.7917
	c-0.9-0.1501-1.725-0.4833-2.45-1c-0.4333-0.0667-1.3083-0.1917-1.7417-0.2584c-1.1084-0.425-2.2001-0.8333-3.2833-1.275
	c-2.6-0.475-5-1.675-7.6-2.1249c-3.2001-1.2333-6.6167-1.725-9.8251-2.8751c-8.1333-2.05-16.4166-3.725-24.275-6.6583
	c-1.6833-0.4333-3.4666-0.6917-4.8833-1.7333c-1.2-0.375-2.3833-0.75-3.5333-1.2c-0.8417-0.3833-1.7-0.6666-2.5833-0.85
	c-12.4834-5.5084-24.8167-11.475-36.5083-18.5084c-17.4501-10.5083-33.9167-22.575-49.8584-35.2333
	c-8.15-6.3666-16-13.1583-24.6833-18.8C956.613,500.8167,954.7547,501.2083,953.1047,501.1583 M842.6047,979.825
	c-0.4,0.1167-1.1833,0.3417-1.5834,0.4501c-7.1,0.2499-14.225-0.0417-21.3083,0.4916c-5.0833,1.0083-10.425-0.275-15.4166,1.1166
	c-6.1667,0.0583-12.2501,0.9417-18.4,1.2084c-4.9083,1.0666-10.0416,0.8833-14.8917,2.1166c-2.8167,0.3668-5.6,0.9417-8.4167,1.275
	c-2.1166,0.925-4.475,0.9918-6.675,1.6583c-13.3333,3.7417-22.0417,16.1166-26.875,28.4333
	c-0.4583,1.45-0.9417,2.9083-1.6333,4.2917c-0.2084,1.1-0.425,2.225-0.7584,3.3333c-1.1917,3.5166-1.7083,7.2251-2.2,10.9083
	c-1.3583,7.6417-0.6334,15.725,1.6833,23.1417c0.5083,1.4166,0.925,2.8916,1.7333,4.1917c0.5417,1.6833,0.8917,3.4417,1.6917,5.0499
	c0.0833,0.4333,0.2416,1.3,0.325,1.7334c0.425,1.325,0.8333,2.6749,1.2833,4.025c0.575,2.2083,0.8083,4.525,1.625,6.6917
	c1.225,2.0667,0.6667,4.5667,1.65,6.7166c0.8167,4.5251,2.5167,8.8501,2.8917,13.4501c1.4583,3.9834,1.6833,8.35,2.9083,12.4333
	c0.425,2.5167,1.0167,5.0083,1.7083,7.4833c0.1417,1.4084,0.2333,2.8501,0.85,4.175c0.5583,2.4667,0.6,5.0917,1.6833,7.425
	c1.0583,5.6499,2.3083,11.2667,3.825,16.8167c0.4083,1.3333,0.5416,2.7167,0.7166,4.1167c1.05,2.0917,1.275,4.45,1.7,6.725
	c1.3167,4.3666,2.2,8.8583,3.3667,13.275c1.15,3.875,2.225,7.7916,3.3083,11.7c1.7583,4.2916,2.2333,9.0917,4.5,13.175
	c0.35,2.5916,1.675,4.8749,2.5916,7.2999c1.325,3.3916,2.6917,6.9,5.175,9.6416c0.925-6.85-1.125-13.4999-1.7667-20.2582
	c-1.35-3.4167-0.775-7.3083-2.075-10.7584c-0.775-5.3167-2.2333-10.4916-3.0167-15.7916c-0.4584-1.3917-0.825-2.8083-1.1833-4.2001
	c-0.1667-1.4249-0.15-2.9249-0.8667-4.1749c-0.15-0.8584-0.2833-1.7001-0.4-2.525c-0.7916-2.7251-1.0667-5.5667-1.8-8.2916
	c-0.3917-1.6667-0.5167-3.3917-1.0917-4.9834c-0.575-2.5-0.8-5.0751-1.6833-7.4833c-0.5417-2.5083-0.6667-5.1083-1.6583-7.4834
	c-0.475-2.25-0.8417-4.5083-1.3-6.7417c-0.5667-1.3416-0.85-2.7749-1.1833-4.1583c-0.1417-1.4082-0.3417-2.825-0.8334-4.1333
	c-0.2667-1.1249-0.525-2.2417-0.7917-3.325c-0.4417-2.25-0.9417-4.4667-1.4333-6.6833c-0.425-1.6583-0.5834-3.375-1.1167-4.9833
	c-0.275-1.1333-0.525-2.2667-0.775-3.3667c-0.425-3.6918-1.75-7.2001-2.1833-10.8834c-0.9667-2.6583-0.65-5.575-0.4916-8.325
	c0.3167-3.3417,3.05-5.7334,5.9916-6.9333c0.4583-0.0416,1.3834-0.125,1.8417-0.1749c1.65-1.1084,3.725-1.2168,5.4-2.2584
	c7.5083-4.4833,11.5416-13.7333,10.65-22.3c-0.9083-5.1249-2.675-10.075-4.6-14.8916c-1.0167-3.475-1.85-7.3583-0.5583-10.8499
	c1.7667-4.8334,6.425-7.6918,10.8167-9.8334c1.5333-0.85,3.2667-1.2416,4.7916-2.1251c1.65-0.6749,3.4333-0.9749,5.075-1.6833
	c0.425-0.0833,1.275-0.2666,1.7-0.3583c1.375-0.3916,2.775-0.725,4.125-1.225c4.425-1.1917,8.975-1.975,13.3334-3.3333
	c1.95-0.5417,3.9417-0.925,5.9417-1.2667c9.6083-2.6584,19.4417-4.4667,29.1583-6.6583c2.4083-0.95,5.025-1.05,7.525-1.6334
	c1.3333-0.5583,2.7333-0.9,4.1334-1.2416c0.8417-0.1249,1.6833-0.2416,2.5416-0.35c2.8083-1.375,6.15-0.8834,9.0084-2.1833
	c2.8083-0.7417,5.625-1.4251,8.4417-2.1167c3.275-1.4001,7.175-1.4083,10.0084-3.6834c0.4917-0.1917,1.4833-0.5666,1.9833-0.7582
	c-2.025-0.4834-4.1167-0.4918-6.175-0.4417C864.2963,979.6333,853.4464,979.4833,842.6047,979.825 M786.4797,1235.4667
	c-3.4583,4.5416-6.5583,9.4-8.8667,14.6333c-1.425,6.1084-0.1583,12.3999,1.4084,18.3667c0.725,1.3,1.2416,2.7167,1.6917,4.1583
	c3.5083,8.1915,8.9417,15.325,14.7416,22.0083c0.9083,0.0499,1.8167,0.1,2.7333,0.1749c-0.3917-3.6083-1.25-7.1416-1.6583-10.7416
	c-0.1833-1.6583,0-3.3833-0.7833-4.8834c-0.2833-4.45-0.275-8.9166-0.025-13.3583c0.9833-2.1917,1.1583-4.6666,2.4083-6.7417
	c1.95-4.25,6.0667-6.8416,10.275-8.475c1.4083-0.0166,2.8167-0.0083,4.2417,0.0166c7.425,2.275,12.025,8.9084,16.1417,15.0417
	c0.0917,0.5333,0.2666,1.5917,0.3583,2.125c0.3917-0.925,0.7833-1.8334,1.175-2.7333c0.25-0.8417,0.5417-1.6583,0.875-2.4501
	c0.5667-2.775,1.2083-5.5667,1.15-8.4c-0.025-5.0083,0.4333-10.1416-1.2-14.9583c-2.9083-7.5668-9.2917-13.3083-16.7999-16.1417
	c-3.0417-0.6583-6.1833-1.4-9.2584-0.575C797.2297,1223.7583,791.4713,1229.7749,786.4797,1235.4667 M860.088,1291.1749
	c0.825,1.5583,1.6,3.15,2.325,4.7833c0.7583,1.2917,1.15,2.7584,1.6416,4.1918c0.3585,0.75,0.6667,1.5499,0.9167,2.3833
	c0.75,2.45,1.3416,4.95,2.0333,7.4333c0.175,5.6333,1.7083,12.3583-2.6083,16.8916c-0.45,0.2333-1.35,0.6917-1.8,0.925
	c-0.6417,0.0249-1.9332,0.0667-2.5833,0.0917c-3.8167-1.5834-6.5-4.9751-8.375-8.5416c-1.5333-4.2001-1.3833-8.6667-1.1917-13.05
	c-0.4167,0.0083-1.2416,0.025-1.6583,0.025c-5.4084,7.0833-9.2,15.1666-13.4417,22.9583c3.6583,5.1333,7.5416,10.1167,11.2,15.2584
	c9.55,12.6333,18.4333,25.7832,28.6333,37.9083c2.2416,2.5333,4.0667,5.4916,6.75,7.6166c0.15,0.375,0.45,1.1167,0.6,1.4917
	c2.1249-4.6417,4.5917-9.1333,6.0667-14.0417c0.225-0.8666,0.5167-1.6915,0.8917-2.4833c0.875-4.15,1.8-8.2833,2.5333-12.4417
	c0.4667-9.4333,0.825-18.9917-0.5167-28.35c0.1416-3.15-0.7584-6.1666-1.5334-9.1666c-0.325-2.2833-0.8333-4.5417-1.7667-6.65
	c-0.0583-0.4417-0.175-1.3418-0.2333-1.7916c-1.5834-3.2584-2.425-6.8917-4.275-10.0585
	c-3.325-6.7583-8.6917-12.7499-15.975-15.2249C865.1797,1291.1167,862.6297,1291.0833,860.088,1291.1749z M1046.813,725.2583
	c3.2084-1.1249,6.6833-0.4333,10.0083-0.7166c7.7666,0.125,15.625-0.5417,23.3082,0.8417c3.925-0.0667,7.7667,0.7667,11.6667,1.1083
	c1.7833,0.8917,3.8333,0.65,5.775,0.8833c1.1,0.3667,2.25,0.6083,3.4083,0.825c14.075,3.0834,28.1083,6.725,41.5166,12.075
	c1.4083,0.475,2.825,0.975,4.1499,1.6833c2.625,0.8083,5.05,2.15,7.5667,3.25c14.4834,6.4167,28.3501,14.275,41.2168,23.5333
	c7.35,5.6833,15.0166,11.4167,20.0667,19.375c0.0083,0.8167,0.0333,2.4584,0.0416,3.2833c-0.7583-0.0667-2.275-0.1917-3.0333-0.25
	c-13.4417-8.4-27.1167-17.2416-42.8334-20.625c-2.8167-0.9334-5.775-1.0833-8.7-1.1833c-4.925-1.1667-10.0751-0.2916-14.925,0.7833
	c-3.1,1.0833-6.0166,3.2667-7.0833,6.475c-1.1918,5.7416,1.1832,11.4916,4.5582,16.05c7.525,10.2,18.15,17.8167,29.8,22.65
	c1.1749,0.4,2.3667,0.7916,3.5667,1.1917c1.8167,0.9166,3.85,1.1833,5.8167,1.675c14.5751,3.3417,28.8917,8.275,42.0333,15.525
	c8.5334,4.6666,17.0583,9.9833,23.3251,17.5583c1.5167,1.55,0.7501,3.8583,0.7417,5.7834c-3.1583-0.1-6.4917,0.6-9.4917-0.6167
	c-3.6416-0.3333-7.3083-0.275-10.9417-0.05c-1.4833,0.9918-3.3916,0.5417-4.9667,1.2584
	c-6.7417,1.0834-12.8417,4.3917-18.6083,7.8751c-4.65,3.1083-9.775,6.025-12.6667,10.9999
	c-0.0166,1.2667-0.0166,2.5417-0.0166,3.825c1.975,1.9833,4.4249,3.35,7.0917,4.2c0.4417,0.0667,1.3082,0.1917,1.7499,0.2583
	c0.875,0.8667,2.2084,0.6833,3.3417,0.95c3.3,0.6833,6.625,1.6,10.025,1.5084c5.0417-0.2083,9.8584,1.9166,14.925,1.5416
	c9.1-0.1917,18.125,0.7916,27.2167,0.8751c-0.0416,0.7333-0.1167,2.1999-0.1583,2.9332
	c-6.4333,14.0583-17.2167,25.5084-28.2666,36.0834c-5.4333,4.6084-10.6167,9.5667-16.6167,13.4417
	c-7.1749,4.6334-14.9417,8.3167-23.0416,11.05c-3.5668,1.225-7.175,2.4083-10.8584,3.275c-2.3167,1.1251-4.9917,1.0834-7.45,1.7084
	c-3.175,1.1667-6.6251,1.175-9.9,1.85c-8.8,1.6583-17.7834,1.5167-26.6917,1.3c-2.2834,0.0666-4.4252-0.7501-6.3417-1.9167
	c0.0167-0.65,0.05-1.2999,0.0833-1.9333c3.775-3.55,9.0834-4.7417,12.8834-8.2667c3.7333-3.3,6.025-7.8666,7.7583-12.45
	c0.775-3.325,1.8668-6.5834,2.1666-9.9917c1.9501-8.4917,1.425-17.2333,1.4751-25.8834c0.0499-10.35-0.55-20.9833-4.0834-30.7667
	c-0.3417-1.4666-0.7084-2.9249-1.2167-4.325c-6.4167-16.275-16.3251-30.925-27.3667-44.4
	c-10.3584-12.9083-22.3168-24.4-34.1417-35.9417c-21.275-19.3-43.6416-37.525-67.5499-53.5c-0.0167-0.325-0.05-0.9667-0.0667-1.2917
	c1.275-0.4583,2.5667-0.9,3.8667-1.2833c3.9084-0.85,7.7584-2.0834,11.7667-2.3667c1.975-1.2333,4.4834-0.3085,6.5917-1.2667
	C1041.7964,725.4333,1044.313,725.5167,1046.813,725.2583z"/>
</svg>
